<?xml version="1.0" encoding="UTF-8"?>
<svg version="1.1" xmlns="http://www.w3.org/2000/svg" width="500" height="500">
<path d="M0 0 C1.25876953 -0.00257813 2.51753906 -0.00515625 3.81445312 -0.0078125 C5.76061523 0.00378906 5.76061523 0.00378906 7.74609375 0.015625 C9.04740234 0.00789062 10.34871094 0.00015625 11.68945312 -0.0078125 C12.94693359 -0.00523437 14.20441406 -0.00265625 15.5 0 C17.20845093 0.00338379 17.20845093 0.00338379 18.95141602 0.00683594 C23.08003715 0.33740006 26.70858241 1.09578842 29.99609375 3.703125 C32.81244448 7.40884965 32.34489203 11.65320397 32.3515625 16.07421875 C32.3565551 17.2189138 32.3565551 17.2189138 32.36164856 18.38673401 C32.36670784 19.99975991 32.36905719 21.61279625 32.36889648 23.22583008 C32.3710825 25.69044268 32.38924707 28.15460723 32.40820312 30.61914062 C32.41113737 32.18749847 32.41312196 33.75585844 32.4140625 35.32421875 C32.42124802 36.05974472 32.42843353 36.79527069 32.43583679 37.55308533 C32.40433078 44.62657106 32.40433078 44.62657106 30.18359375 47.265625 C25.30464031 49.91752384 21.57322848 50.64847541 15.96484375 50.6640625 C15.30327271 50.66693268 14.64170166 50.66980286 13.96008301 50.67276001 C12.57184993 50.67478672 11.18358738 50.66935513 9.79541016 50.65673828 C7.68846887 50.6406622 5.58344519 50.65663223 3.4765625 50.67578125 C2.11848541 50.67379857 0.7604095 50.66995437 -0.59765625 50.6640625 C-1.81517578 50.66067871 -3.03269531 50.65729492 -4.28710938 50.65380859 C-8.86074771 50.150759 -13.14268249 49.2685634 -16.23510742 45.56787109 C-17.08653189 42.19578679 -17.12152397 38.88453637 -17.1171875 35.4296875 C-17.12147263 34.67271576 -17.12575775 33.91574402 -17.13017273 33.13583374 C-17.13590521 31.53718056 -17.13642426 29.9385013 -17.13208008 28.33984375 C-17.1289259 25.90579209 -17.15237098 23.47296351 -17.17773438 21.0390625 C-17.18000822 19.48177236 -17.18071047 17.92447897 -17.1796875 16.3671875 C-17.18889725 15.64512115 -17.19810699 14.92305481 -17.20759583 14.17910767 C-17.16502719 9.4815543 -16.61269924 6.08980434 -13.81640625 2.265625 C-9.20999839 0.34706423 -4.95233396 0.00979898 0 0 Z M-2.81640625 38.265625 C1.18359375 39.265625 1.18359375 39.265625 1.18359375 39.265625 Z " fill="#5E64F6" transform="translate(128.81640625,224.734375)"/>
<path d="M0 0 C2.05078125 0.03255208 4.1015625 0.06510417 6.15234375 0.09765625 C8.78303066 6.45200887 10.18276455 12.64326896 11.33984375 19.41015625 C11.51708984 20.39822266 11.69433594 21.38628906 11.87695312 22.40429688 C13.15234375 29.63807613 13.15234375 29.63807613 13.15234375 33.09765625 C11.17234375 33.09765625 9.19234375 33.09765625 7.15234375 33.09765625 C5.15234375 26.47265625 5.15234375 26.47265625 5.15234375 23.09765625 C3.50234375 23.09765625 1.85234375 23.09765625 0.15234375 23.09765625 C0.09175781 23.73574219 0.03117187 24.37382812 -0.03125 25.03125 C-0.15693359 26.27068359 -0.15693359 26.27068359 -0.28515625 27.53515625 C-0.36636719 28.35886719 -0.44757813 29.18257813 -0.53125 30.03125 C-0.84765625 32.09765625 -0.84765625 32.09765625 -1.84765625 33.09765625 C-3.84723989 33.13846408 -5.84810879 33.14019981 -7.84765625 33.09765625 C-7.49687074 25.60838566 -6.24167797 18.32481624 -4.84765625 10.97265625 C-4.66944336 10.02366455 -4.49123047 9.07467285 -4.30761719 8.09692383 C-4.04899902 6.76310669 -4.04899902 6.76310669 -3.78515625 5.40234375 C-3.55119141 4.19553955 -3.55119141 4.19553955 -3.3125 2.96435547 C-2.70406887 0.52104433 -2.54154311 0.13433103 0 0 Z M2.15234375 9.09765625 C1.82234375 11.73765625 1.49234375 14.37765625 1.15234375 17.09765625 C2.14234375 17.09765625 3.13234375 17.09765625 4.15234375 17.09765625 C3.82234375 14.45765625 3.49234375 11.81765625 3.15234375 9.09765625 C2.82234375 9.09765625 2.49234375 9.09765625 2.15234375 9.09765625 Z " fill="#010101" transform="translate(321.84765625,231.90234375)"/>
<path d="M0 0 C4.62 0 9.24 0 14 0 C17.31359413 4.41812551 17.43186614 5.68163489 17.4375 11 C17.46650391 12.8253125 17.46650391 12.8253125 17.49609375 14.6875 C17 18 17 18 15.17578125 20.421875 C12.33229098 22.48429883 10.43194007 22.31199455 7 22 C7 24.97 7 27.94 7 31 C4.69 31 2.38 31 0 31 C0 20.77 0 10.54 0 0 Z M7 5 C7 8.96 7 12.92 7 17 C7.99 17 8.98 17 10 17 C10.83796731 12.34462607 11.0161692 8.62921525 10 4 C8.7763932 3.9254644 8.7763932 3.9254644 7 5 Z " fill="#010101" transform="translate(355,243)"/>
<path d="M0 0 C4.39742895 0.03426568 7.30617288 0.26534983 10.75 3.25 C12.60661708 6.96323416 12.18969768 11.19713442 11.75 15.25 C10.25 18.3125 10.25 18.3125 7.75 20.25 C5.01460555 20.93906883 2.59507189 21.10774641 -0.25 21.25 C-0.25 25.21 -0.25 29.17 -0.25 33.25 C-1.9 33.25 -3.55 33.25 -5.25 33.25 C-7.15849948 31.34150052 -6.38059633 27.93521226 -6.3828125 25.40625 C-6.38376923 24.72195923 -6.38472595 24.03766846 -6.38571167 23.3326416 C-6.3863933 21.88338123 -6.38454023 20.43411782 -6.38037109 18.98486328 C-6.37502252 16.75937072 -6.3803166 14.53407999 -6.38671875 12.30859375 C-6.38605797 10.90364539 -6.3847768 9.49869715 -6.3828125 8.09375 C-6.38168457 6.80662109 -6.38055664 5.51949219 -6.37939453 4.19335938 C-6.16544327 -0.67342631 -4.41703477 0.07086152 0 0 Z M-0.25 6.25 C-0.25 8.89 -0.25 11.53 -0.25 14.25 C1.4 13.92 3.05 13.59 4.75 13.25 C4.75 11.27 4.75 9.29 4.75 7.25 C3.1 6.92 1.45 6.59 -0.25 6.25 Z " fill="#030204" transform="translate(174.25,231.75)"/>
<path d="M0 0 C2.38312703 1.89428046 3.6500559 3.30011179 5 6 C5.37712577 10.99691647 5.09290612 13.99067725 2 18 C-2.00254616 20.66836411 -5.29313299 20.8340238 -10 20 C-12.75569447 17.81840855 -14.43588747 16.12822506 -16 13 C-16.04227317 8.62049912 -15.78687799 5.04917065 -13.125 1.5 C-8.88584702 -1.49234328 -4.86280998 -1.29413491 0 0 Z " fill="#C8CBFC" transform="translate(146,236)"/>
<path d="M0 0 C4.62 0 9.24 0 14 0 C16.93355363 4.40033045 17.07275902 8.77590269 17 14 C16.33426405 16.7690756 15.46446963 18.50497766 14 21 C11.29120665 22.35439668 8.99066732 22.06501451 6 22 C6 24.97 6 27.94 6 31 C4.02 31 2.04 31 0 31 C0 20.77 0 10.54 0 0 Z M6 5 C6 8.96 6 12.92 6 17 C6.99 17 7.98 17 9 17 C10.26237731 14.47524538 10.09856404 12.68799534 10.0625 9.875 C10.05347656 8.96492187 10.04445313 8.05484375 10.03515625 7.1171875 C10.02355469 6.41851562 10.01195312 5.71984375 10 5 C8.68 5 7.36 5 6 5 Z " fill="#010101" transform="translate(337,243)"/>
<path d="M0 0 C2.43375 -0.04125 4.8675 -0.0825 7.375 -0.125 C8.13989746 -0.14320801 8.90479492 -0.16141602 9.69287109 -0.18017578 C11.46287275 -0.1948117 13.23272455 -0.09928514 15 0 C19.41517431 4.41517431 18.1182793 12.66655986 18.1328125 18.5234375 C18 21 18 21 17 22 C15.02 22 13.04 22 11 22 C11 16.39 11 10.78 11 5 C9.68 5 8.36 5 7 5 C7 10.61 7 16.22 7 22 C4.69 22 2.38 22 0 22 C0 14.74 0 7.48 0 0 Z " fill="#010101" transform="translate(257,243)"/>
<path d="M0 0 C0.66 0.66 1.32 1.32 2 2 C-0.07430024 7.0705117 -2.12191091 9.46714605 -7 12 C-8.19625 12.12375 -9.3925 12.2475 -10.625 12.375 C-14.25938935 12.66978651 -14.25938935 12.66978651 -16.375 15.9375 C-17.26596467 17.61662573 -18.14990809 19.29981619 -19 21 C-21.0625 21.625 -21.0625 21.625 -23 22 C-22.37432129 21.99476318 -21.74864258 21.98952637 -21.10400391 21.98413086 C-18.27767943 21.96338382 -15.45137095 21.95034714 -12.625 21.9375 C-11.64015625 21.92912109 -10.6553125 21.92074219 -9.640625 21.91210938 C-8.22910156 21.90727539 -8.22910156 21.90727539 -6.7890625 21.90234375 C-5.48509521 21.89448853 -5.48509521 21.89448853 -4.15478516 21.88647461 C-2 22 -2 22 0 23 C0 23.66 0 24.32 0 25 C-4.34161825 25.04952706 -8.68308575 25.08577954 -13.02490234 25.10986328 C-14.50116847 25.11990591 -15.97741479 25.13354265 -17.45361328 25.15087891 C-19.57850034 25.17520421 -21.70312385 25.1865004 -23.828125 25.1953125 C-25.1059082 25.20578613 -26.38369141 25.21625977 -27.70019531 25.22705078 C-30.77469299 25.01550278 -32.43738352 24.63126908 -35 23 C-33.68 23 -32.36 23 -31 23 C-31.020625 22.195625 -31.04125 21.39125 -31.0625 20.5625 C-31 18 -31 18 -30 17 C-29.95936168 15.33382885 -29.957279 13.66611905 -30 12 C-27.33333333 12.66666667 -24.66666667 13.33333333 -22 14 C-21.67 13.34 -21.34 12.68 -21 12 C-20.34 12.33 -19.68 12.66 -19 13 C-19 12.34 -19 11.68 -19 11 C-17.68 10.34 -16.36 9.68 -15 9 C-15 8.34 -15 7.68 -15 7 C-13.515 6.938125 -13.515 6.938125 -12 6.875 C-7.03276153 6.21473313 -3.71703495 3.15706605 0 0 Z " fill="#4352CE" transform="translate(152,250)"/>
<path d="M0 0 C2.81082014 0.55476713 3.71929218 1.15285488 5.375 3.46875 C6.1111781 6.1715753 6.19292919 8.64665242 6.375 11.46875 C5.375 12.46875 5.375 12.46875 3.30859375 12.56640625 C2.48488281 12.55480469 1.66117188 12.54320312 0.8125 12.53125 C-0.01378906 12.52222656 -0.84007812 12.51320312 -1.69140625 12.50390625 C-2.32949219 12.49230469 -2.96757812 12.48070312 -3.625 12.46875 C-3.625 14.11875 -3.625 15.76875 -3.625 17.46875 C-0.325 17.46875 2.975 17.46875 6.375 17.46875 C6.045 19.11875 5.715 20.76875 5.375 22.46875 C3.6257786 22.55017927 1.87545458 22.60813541 0.125 22.65625 C-0.84953125 22.69105469 -1.8240625 22.72585938 -2.828125 22.76171875 C-6.05276918 22.42394178 -7.33290797 21.72404239 -9.625 19.46875 C-11.4733661 13.9236517 -11.29047025 7.89296305 -9.75 2.28125 C-6.66069932 -0.35374176 -3.95317417 -0.0470616 0 0 Z M-2.625 4.46875 C-2.955 5.78875 -3.285 7.10875 -3.625 8.46875 C-2.635 8.46875 -1.645 8.46875 -0.625 8.46875 C-0.625 7.14875 -0.625 5.82875 -0.625 4.46875 C-1.285 4.46875 -1.945 4.46875 -2.625 4.46875 Z " fill="#020202" transform="translate(248.625,242.53125)"/>
<path d="M0 0 C3.63 0 7.26 0 11 0 C13.41685712 4.22949995 14.34833144 7.12335991 14 12 C10.7 12 7.4 12 4 12 C4.33 13.32 4.66 14.64 5 16 C7.97 16.33 10.94 16.66 14 17 C13.67 18.65 13.34 20.3 13 22 C2.93690852 22.62460568 2.93690852 22.62460568 -0.625 20.25 C-3.28092565 15.90393984 -3.34397162 12.07358146 -3 7 C-2.17494714 4.53443507 -1.14825059 2.34434495 0 0 Z M5 4 C4.67 5.32 4.34 6.64 4 8 C4.99 8 5.98 8 7 8 C7 6.68 7 5.36 7 4 C6.34 4 5.68 4 5 4 Z " fill="#010101" transform="translate(205,243)"/>
<path d="M0 0 C1.32229189 2.64458379 1.09677194 4.67761301 1.0625 7.625 C1.05347656 8.62789062 1.04445312 9.63078125 1.03515625 10.6640625 C1.02355469 11.43492187 1.01195312 12.20578125 1 13 C0.67 13 0.34 13 0 13 C-0.15855469 12.37351563 -0.31710938 11.74703125 -0.48046875 11.1015625 C-1.79243062 6.06655998 -1.79243062 6.06655998 -5.1875 2.375 C-9.44990781 1.80667896 -14.10789085 1.5667164 -17.69140625 4.28125 C-20.08622107 7.42667842 -20.03296564 11.1496135 -20 15 C-19.39072482 17.01822402 -18.73519522 19.02416285 -18 21 C-18.375 23.375 -18.375 23.375 -19 25 C-19.99 24.67 -20.98 24.34 -22 24 C-22.33 24.99 -22.66 25.98 -23 27 C-24.98 26.67 -26.96 26.34 -29 26 C-29.625 22.625 -29.625 22.625 -30 19 C-29.34 18.34 -28.68 17.68 -28 17 C-26.68 17 -25.36 17 -24 17 C-24.0928125 15.2675 -24.0928125 15.2675 -24.1875 13.5 C-24.21274356 8.78786879 -22.84474512 5.30440528 -21 1 C-20.34 1 -19.68 1 -19 1 C-19 0.01 -19 -0.98 -19 -2 C-6.23327386 -3.73996432 -6.23327386 -3.73996432 0 0 Z " fill="#807AE9" transform="translate(151,234)"/>
<path d="M0 0 C0.33 0.66 0.66 1.32 1 2 C0.67 2.99 0.34 3.98 0 5 C-2.97 4.505 -2.97 4.505 -6 4 C-5.236875 4.598125 -4.47375 5.19625 -3.6875 5.8125 C-2.800625 6.534375 -1.91375 7.25625 -1 8 C-0.401875 8.45375 0.19625 8.9075 0.8125 9.375 C2.70960383 11.97103682 2.4445832 13.8879176 2 17 C0.5 19.375 0.5 19.375 -2 21 C-4.77762509 21.55780176 -7.22627977 21.5911207 -10 21 C-12.5 19 -12.5 19 -14 17 C-13.01 15.515 -13.01 15.515 -12 14 C-9.69 14.33 -7.38 14.66 -5 15 C-6.81231023 13.09230502 -8.48552127 11.67255542 -10.6875 10.1875 C-13 8 -13 8 -13.5 4.9375 C-13 2 -13 2 -11.75 0.1875 C-7.48649813 -2.70559056 -4.66751137 -1.97072702 0 0 Z " fill="#020202" transform="translate(290,244)"/>
<path d="M0 0 C0.7940625 0.01417969 1.588125 0.02835938 2.40625 0.04296875 C3.59734375 0.05263672 3.59734375 0.05263672 4.8125 0.0625 C6.90625 0.23046875 6.90625 0.23046875 8.90625 1.23046875 C8.57625 2.88046875 8.24625 4.53046875 7.90625 6.23046875 C4.93625 5.73546875 4.93625 5.73546875 1.90625 5.23046875 C2.48375 5.64296875 3.06125 6.05546875 3.65625 6.48046875 C9.73603723 11.20919215 9.73603723 11.20919215 10.40625 15.23046875 C9.90625 18.23046875 9.90625 18.23046875 8.34375 20.60546875 C4.99341465 22.83902565 2.8581067 22.72445084 -1.09375 22.23046875 C-3.53125 20.73046875 -3.53125 20.73046875 -5.09375 19.23046875 C-4.76375 17.91046875 -4.43375 16.59046875 -4.09375 15.23046875 C-1.78375 15.56046875 0.52625 15.89046875 2.90625 16.23046875 C3.23625 15.57046875 3.56625 14.91046875 3.90625 14.23046875 C3.16375 13.98296875 2.42125 13.73546875 1.65625 13.48046875 C-1.42598096 12.07945468 -3.10744297 10.98074002 -5.09375 8.23046875 C-4.93255912 4.20069676 -4.66289492 0.51326642 0 0 Z " fill="#020202" transform="translate(226.09375,242.76953125)"/>
<path d="M0 0 C4.29 0 8.58 0 13 0 C13 1.65 13 3.3 13 5 C10 6 10 6 7 6 C6.67 11.28 6.34 16.56 6 22 C4.02 22 2.04 22 0 22 C0 14.74 0 7.48 0 0 Z " fill="#010101" transform="translate(188,243)"/>
<path d="M0 0 C2.5625 1.8125 2.5625 1.8125 4 4 C3.875 6.1875 3.875 6.1875 3 8 C1 9 1 9 -1.375 8.9375 C-3.97440623 8.80793657 -3.97440623 8.80793657 -5.9375 10 C-8.71205135 11.34523702 -10.9585829 11.20276114 -14 11 C-15 10 -15 10 -15.3125 7.1875 C-15 4 -15 4 -13.1875 1.6875 C-8.98647473 -1.55329092 -4.95102914 -1.29243733 0 0 Z " fill="#E9E9FC" transform="translate(146,236)"/>
<path d="M0 0 C1.92875977 0.00966797 1.92875977 0.00966797 3.89648438 0.01953125 C5.23437779 0.03623649 6.57226842 0.05316631 7.91015625 0.0703125 C9.27538408 0.08035928 10.64061905 0.08948214 12.00585938 0.09765625 C15.32830824 0.12113645 18.65038946 0.15397891 21.97265625 0.1953125 C21.97265625 0.5253125 21.97265625 0.8553125 21.97265625 1.1953125 C16.6077603 2.10014887 11.46948168 2.31834912 6.03515625 2.2578125 C5.25591797 2.25330078 4.47667969 2.24878906 3.67382812 2.24414062 C1.77340357 2.23248158 -0.12698081 2.21455127 -2.02734375 2.1953125 C-1.69734375 3.1853125 -1.36734375 4.1753125 -1.02734375 5.1953125 C-3.01302083 4.86979167 -4.99869792 4.54427083 -6.984375 4.21875 C-9.34490199 3.99953402 -9.34490199 3.99953402 -12.02734375 6.1953125 C-11.03734375 7.6803125 -11.03734375 7.6803125 -10.02734375 9.1953125 C-10.90234375 11.8828125 -10.90234375 11.8828125 -12.02734375 14.1953125 C-13.01734375 13.8653125 -14.00734375 13.5353125 -15.02734375 13.1953125 C-15.02210693 13.7843335 -15.01687012 14.37335449 -15.01147461 14.98022461 C-14.99044572 17.69774267 -14.97760229 20.41524351 -14.96484375 23.1328125 C-14.95646484 24.05900391 -14.94808594 24.98519531 -14.93945312 25.93945312 C-14.91896589 31.77831553 -15.27304588 37.40444303 -16.02734375 43.1953125 C-16.35734375 43.1953125 -16.68734375 43.1953125 -17.02734375 43.1953125 C-17.10178032 38.32067159 -17.15608042 33.44636522 -17.19213867 28.57128906 C-17.2071784 26.91465487 -17.22761552 25.25806019 -17.25366211 23.6015625 C-17.2902589 21.2134422 -17.30711814 18.82585062 -17.3203125 16.4375 C-17.33579636 15.70288544 -17.35128021 14.96827087 -17.36723328 14.21139526 C-17.36876946 9.46390643 -16.86608676 6.05565632 -14.02734375 2.1953125 C-9.33930878 0.22848716 -5.04200777 -0.04481785 0 0 Z " fill="#8371E9" transform="translate(129.02734375,224.8046875)"/>
<path d="M0 0 C1.65 0.33 3.3 0.66 5 1 C5 8.26 5 15.52 5 23 C3.02 23 1.04 23 -1 23 C-3.30009773 20.69990227 -2.18537365 15.15209334 -2.1875 12.0625 C-2.19974609 11.12986328 -2.21199219 10.19722656 -2.22460938 9.23632812 C-2.22654297 8.34494141 -2.22847656 7.45355469 -2.23046875 6.53515625 C-2.23663208 5.30357788 -2.23663208 5.30357788 -2.24291992 4.04711914 C-2 2 -2 2 0 0 Z " fill="#000000" transform="translate(296,242)"/>
<path d="M0 0 C3.96 0 7.92 0 12 0 C12 0.99 12 1.98 12 3 C10.68 3.33 9.36 3.66 8 4 C8.62567871 3.99476318 9.25135742 3.98952637 9.89599609 3.98413086 C12.72232057 3.96338382 15.54862905 3.95034714 18.375 3.9375 C19.85226563 3.92493164 19.85226563 3.92493164 21.359375 3.91210938 C22.77089844 3.90727539 22.77089844 3.90727539 24.2109375 3.90234375 C25.51490479 3.89448853 25.51490479 3.89448853 26.84521484 3.88647461 C29 4 29 4 31 5 C31 5.66 31 6.32 31 7 C26.65838175 7.04952706 22.31691425 7.08577954 17.97509766 7.10986328 C16.49883153 7.11990591 15.02258521 7.13354265 13.54638672 7.15087891 C11.42149966 7.17520421 9.29687615 7.1865004 7.171875 7.1953125 C5.8940918 7.20578613 4.61630859 7.21625977 3.29980469 7.22705078 C0.22530701 7.01550278 -1.43738352 6.63126908 -4 5 C-2.68 5 -1.36 5 0 5 C0 3.35 0 1.7 0 0 Z " fill="#4A60D7" transform="translate(121,268)"/>
<path d="M0 0 C0 0.99 0 1.98 0 3 C1.32 3.33 2.64 3.66 4 4 C0.96611049 7.13175692 -1.27350946 8.33013899 -5.5625 8.5 C-8.94456426 8.36471743 -9.79499749 8.16000196 -12.5625 6 C-13.2740625 5.01 -13.2740625 5.01 -14 4 C-13.38511719 3.87882813 -12.77023438 3.75765625 -12.13671875 3.6328125 C-11.32847656 3.46523437 -10.52023438 3.29765625 -9.6875 3.125 C-8.88699219 2.96257812 -8.08648437 2.80015625 -7.26171875 2.6328125 C-4.49539754 1.85881589 -2.89416566 0 0 0 Z " fill="#A7AFFB" transform="translate(146,248)"/>
<path d="M0 0 C1.94326172 0.01933594 1.94326172 0.01933594 3.92578125 0.0390625 C5.28907324 0.07248134 6.65235449 0.10634109 8.015625 0.140625 C9.39450564 0.16069793 10.77341412 0.17894733 12.15234375 0.1953125 C15.52414244 0.24247052 18.89453187 0.30827962 22.265625 0.390625 C22.265625 0.720625 22.265625 1.050625 22.265625 1.390625 C16.90072905 2.29546137 11.76245043 2.51366162 6.328125 2.453125 C5.54888672 2.44861328 4.76964844 2.44410156 3.96679688 2.43945312 C2.06637232 2.42779408 0.16598794 2.40986377 -1.734375 2.390625 C-1.404375 3.380625 -1.074375 4.370625 -0.734375 5.390625 C-4.034375 5.060625 -7.334375 4.730625 -10.734375 4.390625 C-7.41705615 0.24038627 -5.21859287 -0.09155426 0 0 Z " fill="#7A6FD2" transform="translate(128.734375,224.609375)"/>
<path d="M0 0 C0.33 0 0.66 0 1 0 C1.22582973 4.58264761 1.42764772 9.16604466 1.625 13.75 C1.68945312 15.05195313 1.75390625 16.35390625 1.8203125 17.6953125 C1.871875 18.94570313 1.9234375 20.19609375 1.9765625 21.484375 C2.02893066 22.63647461 2.08129883 23.78857422 2.13525391 24.97558594 C1.99980783 28.00429702 1.70892296 29.53100987 0 32 C-0.99 32.66 -1.98 33.32 -3 34 C-3.99 33.67 -4.98 33.34 -6 33 C-5.690625 32.236875 -5.38125 31.47375 -5.0625 30.6875 C-4.32106407 28.81210323 -3.63771783 26.91315348 -3 25 C-2.01 25 -1.02 25 0 25 C0 16.75 0 8.5 0 0 Z " fill="#415DDE" transform="translate(159,240)"/>
<path d="M0 0 C0.495 0.309375 0.99 0.61875 1.5 0.9375 C4.97986781 2.41644382 8.24028509 2.62402851 12 3 C5.63636364 8 5.63636364 8 1 8 C1 8.66 1 9.32 1 10 C-1.64 10 -4.28 10 -7 10 C-6.67 9.01 -6.34 8.02 -6 7 C-5.34 7 -4.68 7 -4 7 C-3.67 6.34 -3.34 5.68 -3 5 C-2.01 5 -1.02 5 0 5 C0 3.35 0 1.7 0 0 Z " fill="#5661CE" transform="translate(132,253)"/>
<path d="M0 0 C0.66 0 1.32 0 2 0 C2.66 0.66 3.32 1.32 4 2 C4.66 2 5.32 2 6 2 C6.33 2.99 6.66 3.98 7 5 C7.66 5.66 8.32 6.32 9 7 C5.33694766 7.74926071 2.57644848 8.2380014 -1 7 C-1.04254356 5.00045254 -1.04080783 2.99958364 -1 1 C-0.67 0.67 -0.34 0.34 0 0 Z " fill="#D9DAFC" transform="translate(132,239)"/>
<path d="M0 0 C1.32229189 2.64458379 1.09677194 4.67761301 1.0625 7.625 C1.05347656 8.62789062 1.04445312 9.63078125 1.03515625 10.6640625 C1.02355469 11.43492187 1.01195312 12.20578125 1 13 C0.67 13 0.34 13 0 13 C-1.33333333 9 -2.66666667 5 -4 1 C-6.29629994 -0.14814997 -8.07698086 -0.30769809 -10.625 -0.5625 C-11.44226563 -0.64628906 -12.25953125 -0.73007813 -13.1015625 -0.81640625 C-13.72804687 -0.87699219 -14.35453125 -0.93757812 -15 -1 C-15 -1.33 -15 -1.66 -15 -2 C-8.81127356 -3.19431563 -5.55203634 -3.05928533 0 0 Z " fill="#7A75F9" transform="translate(151,234)"/>
<path d="M0 0 C0.99 0 1.98 0 3 0 C3 0.66 3 1.32 3 2 C3.99 2 4.98 2 6 2 C6 2.66 6 3.32 6 4 C5.01 4 4.02 4 3 4 C3.33 5.98 3.66 7.96 4 10 C2.35 10.66 0.7 11.32 -1 12 C-1 11.34 -1 10.68 -1 10 C-1.66 10 -2.32 10 -3 10 C-2.34562105 8.69124211 -1.65889365 7.39804762 -0.9375 6.125 C0.26909347 3.77715697 0.26909347 3.77715697 0 0 Z " fill="#5B64E7" transform="translate(119,258)"/>
<path d="M0 0 C2.625 0.9375 2.625 0.9375 5 2 C5 2.99 5 3.98 5 5 C4.01 4.67 3.02 4.34 2 4 C1.67 4.99 1.34 5.98 1 7 C-1.475 6.01 -1.475 6.01 -4 5 C-2.25 1.125 -2.25 1.125 0 0 Z " fill="#A6B0FA" transform="translate(127,254)"/>
<path d="M0 0 C1.65 0 3.3 0 5 0 C5.625 2.375 5.625 2.375 6 5 C5.34 5.66 4.68 6.32 4 7 C1.875 6.625 1.875 6.625 0 6 C-1.125 2.25 -1.125 2.25 0 0 Z " fill="#010101" transform="translate(295,232)"/>
<path d="M0 0 C0.33 0 0.66 0 1 0 C1.33 1.65 1.66 3.3 2 5 C5.3 5.33 8.6 5.66 12 6 C9 9 9 9 5.4375 9.375 C4.303125 9.25125 3.16875 9.1275 2 9 C-0.29013653 5.5647952 -0.17842973 4.014669 0 0 Z " fill="#BABEFB" transform="translate(130,243)"/>
<path d="M0 0 C0 0.99 0 1.98 0 3 C-1.2065625 3.433125 -1.2065625 3.433125 -2.4375 3.875 C-5.1326468 4.73262568 -5.1326468 4.73262568 -6 7 C-5.34 7.33 -4.68 7.66 -4 8 C-4.99 8 -5.98 8 -7 8 C-7.33 6.02 -7.66 4.04 -8 2 C-4.77208445 -0.1519437 -3.71599191 -0.20086443 0 0 Z " fill="#8083F2" transform="translate(129,252)"/>
<path d="M0 0 C0.99 0.33 1.98 0.66 3 1 C2.67 1.99 2.34 2.98 2 4 C-0.31 4.33 -2.62 4.66 -5 5 C-5.66 3.68 -6.32 2.36 -7 1 C-4.69 1.33 -2.38 1.66 0 2 C0 1.34 0 0.68 0 0 Z " fill="#3A45B5" transform="translate(130,262)"/>
<path d="M0 0 C1.65 0.33 3.3 0.66 5 1 C4.67 2.32 4.34 3.64 4 5 C1.36 5 -1.28 5 -4 5 C-3.67 4.01 -3.34 3.02 -3 2 C-2.34 2 -1.68 2 -1 2 C-0.67 1.34 -0.34 0.68 0 0 Z " fill="#737DD5" transform="translate(129,258)"/>
<path d="M0 0 C-3.22857707 1.73846458 -6.51062964 2.88637116 -10 4 C-10.99 4.33 -11.98 4.66 -13 5 C-12.34 3.35 -11.68 1.7 -11 0 C-9.54263913 -0.19491452 -8.08405407 -0.38069358 -6.625 -0.5625 C-5.81289062 -0.66691406 -5.00078125 -0.77132813 -4.1640625 -0.87890625 C-2 -1 -2 -1 0 0 Z " fill="#495CE7" transform="translate(147,260)"/>
<path d="M0 0 C1.93627769 -0.10807131 3.87427756 -0.1856225 5.8125 -0.25 C7.43091797 -0.31960937 7.43091797 -0.31960937 9.08203125 -0.390625 C12 0 12 0 13.88671875 2.015625 C14.25410156 2.67046875 14.62148437 3.3253125 15 4 C13.68 4.33 12.36 4.66 11 5 C10.67 3.68 10.34 2.36 10 1 C5.545 1.495 5.545 1.495 1 2 C0.67 1.34 0.34 0.68 0 0 Z " fill="#6B67E6" transform="translate(144,226)"/>
<path d="M0 0 C0.66 0.66 1.32 1.32 2 2 C-0.625 7.75 -0.625 7.75 -4 10 C-4.33 9.01 -4.66 8.02 -5 7 C-4.34 6.67 -3.68 6.34 -3 6 C-1.95191959 4.02477154 -0.9479589 2.02518491 0 0 Z " fill="#4357E3" transform="translate(152,250)"/>
<path d="M0 0 C0.99 0.33 1.98 0.66 3 1 C2.67 2.65 2.34 4.3 2 6 C0.68 6.33 -0.64 6.66 -2 7 C-1.34 4.69 -0.68 2.38 0 0 Z " fill="#5464DD" transform="translate(152,244)"/>
<path d="M0 0 C0 3.63 0 7.26 0 11 C-0.33 11 -0.66 11 -1 11 C-1.99 7.7 -2.98 4.4 -4 1 C-2 0 -2 0 0 0 Z " fill="#7379E1" transform="translate(152,236)"/>
<path d="M0 0 C2.64 0 5.28 0 8 0 C8.33 0.99 8.66 1.98 9 3 C5.7 2.67 2.4 2.34 -1 2 C-0.67 1.34 -0.34 0.68 0 0 Z " fill="#856DFA" transform="translate(119,227)"/>
<path d="M0 0 C0.33 0 0.66 0 1 0 C1.33 2.64 1.66 5.28 2 8 C1.01 8.33 0.02 8.66 -1 9 C-1.66 7.68 -2.32 6.36 -3 5 C-2.01 5 -1.02 5 0 5 C0 3.35 0 1.7 0 0 Z " fill="#3757EA" transform="translate(159,260)"/>
<path d="M0 0 C0.99 0.33 1.98 0.66 3 1 C3.33 2.65 3.66 4.3 4 6 C3.01 6.66 2.02 7.32 1 8 C0.67 5.36 0.34 2.72 0 0 Z " fill="#DCDFFE" transform="translate(146,237)"/>
<path d="M0 0 C-1 2 -1 2 -4.0625 3.125 C-5.031875 3.41375 -6.00125 3.7025 -7 4 C-6.6875 2.0625 -6.6875 2.0625 -6 0 C-3 -1 -3 -1 0 0 Z " fill="#495EF3" transform="translate(134,269)"/>
</svg>
