<?xml version="1.0" encoding="UTF-8"?>
<svg version="1.1" xmlns="http://www.w3.org/2000/svg" width="994" height="256">
<path d="M0 0 C328.02 0 656.04 0 994 0 C994 84.48 994 168.96 994 256 C665.98 256 337.96 256 0 256 C0 171.52 0 87.04 0 0 Z " fill="#FEFEFE" transform="translate(0,0)"/>
<path d="M0 0 C0.91210236 -0.0049649 1.82420471 -0.00992981 2.76394653 -0.01504517 C5.74937729 -0.02952078 8.73475491 -0.03644454 11.72021484 -0.04199219 C13.26519213 -0.04623325 13.26519213 -0.04623325 14.84138107 -0.05056 C20.29334514 -0.06549396 25.74528315 -0.07475973 31.19726562 -0.07910156 C36.78482923 -0.0845746 42.37214776 -0.10859491 47.95963478 -0.13707352 C52.29577296 -0.15583496 56.63185371 -0.16091265 60.96802902 -0.16243744 C63.02580478 -0.16543459 65.08358025 -0.17336166 67.14131546 -0.18662262 C102.75632285 -0.3997479 102.75632285 -0.3997479 114.86474609 10.58691406 C122.17466231 18.57037269 123.9826682 27.73287971 125.30615234 38.16113281 C125.43775757 39.1340477 125.43775757 39.1340477 125.57202148 40.12661743 C126.58484844 48.70480572 126.47031654 57.31119011 126.47412109 65.93457031 C126.47734371 67.66598537 126.48070849 69.39740017 126.48420715 71.1288147 C126.49017182 74.75141021 126.49205002 78.37398197 126.49145508 81.99658203 C126.49135412 86.57929029 126.50494991 91.16184131 126.52222729 95.74451256 C126.53349688 99.32248597 126.5353697 102.90042331 126.53484535 106.47841263 C126.53600528 108.1644507 126.54031128 109.85049035 126.54817772 111.53651047 C126.58695259 120.71226398 126.29376978 129.76949246 125.3972168 138.90576172 C125.27692376 140.13566613 125.27692376 140.13566613 125.15420055 141.3904171 C123.87598129 153.30047777 120.88469627 163.64653134 111.49755859 171.71582031 C106.02176148 175.56367774 99.78828704 176.88199157 93.30615234 178.16113281 C92.45641846 178.33473328 91.60668457 178.50833374 90.73120117 178.68719482 C86.32774362 179.29651922 82.01583035 179.31675593 77.57568359 179.32226562 C76.13043556 179.32971298 76.13043556 179.32971298 74.6559906 179.33731079 C71.47687048 179.35188151 68.29780034 179.35872756 65.11865234 179.36425781 C62.89632161 179.37001544 60.67399089 179.37577309 58.45166016 179.38153076 C53.79133881 179.39202768 49.13103463 179.39787826 44.47070312 179.40136719 C38.53083863 179.40683528 32.59120527 179.43083289 26.65141296 179.45933914 C22.05799726 179.47806923 17.46463595 179.48317672 12.8711853 179.48470306 C10.68336734 179.48770906 8.49554986 179.49566718 6.30776978 179.50888824 C-28.86368075 179.7061849 -28.86368075 179.7061849 -41.69384766 167.16113281 C-49.37301516 156.6953422 -51.01569537 145.36106408 -50.93676758 132.63183594 C-50.93866592 131.6432811 -50.94056427 130.65472626 -50.94252014 129.63621521 C-50.94619088 126.40485411 -50.93557541 123.17372355 -50.92431641 119.94238281 C-50.92312222 117.67517117 -50.92267195 115.40795902 -50.92292786 113.14074707 C-50.92136929 108.40353265 -50.91312823 103.66639447 -50.8996582 98.92919922 C-50.88266955 92.88052574 -50.87884434 86.83193582 -50.87960339 80.78324127 C-50.87933045 76.105888 -50.87382938 71.42855271 -50.86660194 66.75120544 C-50.86343741 64.52184688 -50.86145309 62.2924863 -50.86070824 60.06312561 C-50.85852097 56.93885893 -50.84972595 53.81467773 -50.83911133 50.69042969 C-50.83956451 49.78413315 -50.8400177 48.87783661 -50.84048462 47.94407654 C-50.77263726 34.16962069 -49.86494552 20.51385743 -39.69384766 10.16113281 C-28.51069711 0.55061281 -14.0983367 0.01883851 0 0 Z " fill="#5F66F6" transform="translate(50.69384765625,39.8388671875)"/>
<path d="M0 0 C8.40202582 6.99675742 14.28683004 16.2540251 15.69921875 27.24609375 C16.09313235 39.64758049 12.11681064 50.3432927 3.66015625 59.46484375 C-6.13216595 68.51986169 -16.92303599 70.33390293 -29.74316406 69.87744141 C-39.76165084 69.24123093 -46.99058588 62.93090591 -53.5625 55.8125 C-61.70791762 46.06067751 -62.44907648 36.10035123 -61.75 23.75 C-59.84995839 12.76840359 -52.41318829 4.28071117 -43.75 -2.25 C-29.97927919 -11.29626299 -12.97964232 -9.50682832 0 0 Z " fill="#CFD1FD" transform="translate(126.75,82.25)"/>
<path d="M0 0 C7.96827943 4.50326624 13.11588654 11.34765962 16 20 C17.07887141 32.29913408 17.01851037 43.68092091 9.3125 53.8125 C3.96916399 59.56372425 -2.86032705 62.7267099 -10.609375 63.23828125 C-20.20066275 63.4936945 -26.67633558 62.95569298 -33.9375 56.3125 C-34.618125 55.549375 -35.29875 54.78625 -36 54 C-36.33 53.67 -36.66 53.34 -37 53 C-37.33 64.22 -37.66 75.44 -38 87 C-42.62 87 -47.24 87 -52 87 C-52 57.63 -52 28.26 -52 -2 C-47.38 -2 -42.76 -2 -38 -2 C-37.67 1.3 -37.34 4.6 -37 8 C-36.54625 7.278125 -36.0925 6.55625 -35.625 5.8125 C-26.11098584 -4.38108659 -12.3022076 -4.97058893 0 0 Z " fill="#3E3D3D" transform="translate(967,109)"/>
<path d="M0 0 C6.39949253 5.25672601 10.49643266 11.47599861 12.703125 19.45703125 C13.68967216 30.988102 12.93255618 41.45401884 5.44140625 50.63671875 C-0.15496725 56.49719078 -6.06230893 60.32945 -14.3203125 60.79296875 C-28.78407395 61.09113969 -28.78407395 61.09113969 -35.296875 56.45703125 C-37.771875 53.98203125 -37.771875 53.98203125 -40.296875 51.45703125 C-40.626875 62.34703125 -40.956875 73.23703125 -41.296875 84.45703125 C-45.916875 84.45703125 -50.536875 84.45703125 -55.296875 84.45703125 C-55.296875 55.08703125 -55.296875 25.71703125 -55.296875 -4.54296875 C-50.676875 -4.54296875 -46.056875 -4.54296875 -41.296875 -4.54296875 C-40.966875 -1.57296875 -40.636875 1.39703125 -40.296875 4.45703125 C-39.82378906 3.98652344 -39.35070312 3.51601562 -38.86328125 3.03125 C-27.65731204 -7.51939937 -12.99593493 -8.73026241 0 0 Z " fill="#3C3B3B" transform="translate(887.296875,111.54296875)"/>
<path d="M0 0 C50.52459016 0 50.52459016 0 61 9 C67.16387643 15.5557121 68.50312691 23.00008891 68.3046875 31.80859375 C67.47856952 40.46165001 64.81717117 47.51364864 58.28125 53.37890625 C50.9063266 58.61964805 42.63265935 60.14174584 33.7265625 60.09765625 C32.16542725 60.09390991 32.16542725 60.09390991 30.57275391 60.09008789 C29.26999512 60.08098389 27.96723633 60.07187988 26.625 60.0625 C22.45875 60.041875 18.2925 60.02125 14 60 C14 68.58 14 77.16 14 86 C9.38 86 4.76 86 0 86 C0 57.62 0 29.24 0 0 Z " fill="#3B3A3A" transform="translate(202,86)"/>
<path d="M0 0 C4.95 0 9.9 0 15 0 C20.44282642 10.63018772 25.33627235 21.41038991 30.0625 32.375 C30.80029372 34.0791147 31.5384997 35.78305097 32.27709961 37.48681641 C33.40488893 40.08844687 34.53241308 42.69018796 35.65846252 45.29257202 C38.16218183 51.07729565 40.68349938 56.85403013 43.21875 62.625 C43.54757675 63.3739151 43.8764035 64.1228302 44.2151947 64.8944397 C45.47159909 67.75538521 46.72827489 70.61620615 47.98782349 73.47576904 C48.83852845 75.40762947 49.6870607 77.34043045 50.53515625 79.2734375 C51.013479 80.36060059 51.49180176 81.44776367 51.98461914 82.56787109 C53 85 53 85 53 86 C47.72 86 42.44 86 37 86 C34.36 79.73 31.72 73.46 29 67 C14.81 67 0.62 67 -14 67 C-16.64 73.27 -19.28 79.54 -22 86 C-26.95 86 -31.9 86 -37 86 C-36.19337021 81.96685104 -35.36267231 79.25934655 -33.69140625 75.609375 C-33.20027344 74.5270459 -32.70914063 73.4447168 -32.203125 72.32958984 C-31.66171875 71.1483252 -31.1203125 69.96706055 -30.5625 68.75 C-29.38343945 66.15512695 -28.20904151 63.55815525 -27.03515625 60.9609375 C-26.71982941 60.26420929 -26.40450256 59.56748108 -26.07962036 58.84963989 C-21.4079233 48.50567221 -16.87916952 38.0981615 -12.32962036 27.70007324 C-8.2773383 18.43937664 -4.21705006 9.18714477 0 0 Z " fill="#3C3C3C" transform="translate(768,86)"/>
<path d="M0 0 C7.61441463 5.31005231 11.3988753 11.4232516 13.078125 20.44921875 C13.078125 25.39921875 13.078125 30.34921875 13.078125 35.44921875 C-3.091875 35.44921875 -19.261875 35.44921875 -35.921875 35.44921875 C-31.48684774 45.10360781 -31.48684774 45.10360781 -23.921875 50.44921875 C-16.54365499 52.7004473 -9.83591908 51.49241679 -2.921875 48.44921875 C-0.7899114 47.22782687 1.10124435 45.91920693 3.078125 44.44921875 C5.388125 46.75921875 7.698125 49.06921875 10.078125 51.44921875 C4.03716437 58.03935762 -3.13862098 62.24237746 -12.2421875 62.85546875 C-23.52655758 63.22053755 -32.14295476 62.2385156 -41.0625 54.62109375 C-48.71453195 46.71185064 -50.60271197 37.8922087 -50.53100586 27.21020508 C-50.13288016 18.03412732 -46.78966716 10.80821429 -40.109375 4.44921875 C-38.74431849 3.40759914 -37.34851804 2.40475019 -35.921875 1.44921875 C-35.3134375 1.01738281 -34.705 0.58554688 -34.078125 0.140625 C-25.08559252 -5.01580731 -9.1511871 -4.55959497 0 0 Z " fill="#3C3B3B" transform="translate(375.921875,109.55078125)"/>
<path d="M0 0 C0.82564453 -0.020625 1.65128906 -0.04125 2.50195312 -0.0625 C10.56660691 -0.113341 17.15700153 1.83721536 23.20703125 7.375 C31.1449349 16.64554441 30.8125 26.24369658 30.8125 38.25 C14.6425 38.25 -1.5275 38.25 -18.1875 38.25 C-14.51853509 46.50517106 -13.22170575 49.31337998 -5.9375 53.5625 C2.77043734 55.73948433 8.46558238 53.93468426 16.1484375 49.46484375 C18.8125 48.25 18.8125 48.25 21.01953125 48.453125 C23.61762957 49.60783537 25.08244433 51.00733524 26.8125 53.25 C26.70703125 55.19140625 26.70703125 55.19140625 25.8125 57.25 C23.7734375 58.8828125 23.7734375 58.8828125 21.1875 60.375 C20.34960938 60.87257812 19.51171875 61.37015625 18.6484375 61.8828125 C9.42190669 66.33086454 -2.10595923 66.8481315 -12.078125 64.59765625 C-19.71700178 61.48601588 -26.22161196 55.4191053 -30.1875 48.25 C-33.7832222 39.63334207 -33.70014779 27.9291821 -31.3125 18.96484375 C-27.31377235 10.45439378 -20.82108768 4.74097241 -12.1875 1.25 C-8.09768766 -0.11327078 -4.28400477 0.02614191 0 0 Z " fill="#3C3B3B" transform="translate(488.1875,106.75)"/>
<path d="M0 0 C7.13496555 -0.3873624 13.6628057 1.25937562 19.09765625 6.0625 C23.61106257 11.01601026 26.24291026 15.40897492 26.20751953 22.25708008 C26.20736847 23.23771927 26.20721741 24.21835846 26.20706177 25.22871399 C26.1967392 26.27472275 26.18641663 27.32073151 26.17578125 28.3984375 C26.17295135 29.47896896 26.17012146 30.55950043 26.16720581 31.67277527 C26.15603007 35.11659926 26.13092993 38.56016114 26.10546875 42.00390625 C26.0954356 44.34179311 26.08631033 46.67968406 26.078125 49.01757812 C26.05609921 54.74228816 26.02158696 60.4668028 25.98046875 66.19140625 C21.36046875 66.19140625 16.74046875 66.19140625 11.98046875 66.19140625 C11.96588623 64.95052246 11.95130371 63.70963867 11.9362793 62.43115234 C11.87816152 57.81270004 11.80092928 53.19472841 11.71801758 48.57666016 C11.68483162 46.58064596 11.65678007 44.58453936 11.6340332 42.58837891 C11.60037082 39.71346785 11.54804898 36.83939882 11.4921875 33.96484375 C11.48579758 33.07711273 11.47940765 32.18938171 11.4728241 31.27474976 C11.35290232 26.18312294 10.79128041 22.60685752 7.98046875 18.19140625 C3.57556334 14.19946072 -0.71559083 13.83000764 -6.453125 13.921875 C-11.18928534 14.41927997 -14.35434348 16.18974197 -17.39970398 19.85046387 C-20.98238683 25.19414968 -21.75657604 29.36024742 -21.7265625 35.72265625 C-21.74168381 36.59917847 -21.75680511 37.47570068 -21.77238464 38.37878418 C-21.81501686 41.14992491 -21.82407567 43.91997128 -21.83203125 46.69140625 C-21.85519467 48.58205985 -21.88056383 50.47268779 -21.90820312 52.36328125 C-21.9708133 56.97275195 -22.0033396 61.58154829 -22.01953125 66.19140625 C-26.63953125 66.19140625 -31.25953125 66.19140625 -36.01953125 66.19140625 C-36.01953125 44.74140625 -36.01953125 23.29140625 -36.01953125 1.19140625 C-31.39953125 1.19140625 -26.77953125 1.19140625 -22.01953125 1.19140625 C-21.68953125 4.49140625 -21.35953125 7.79140625 -21.01953125 11.19140625 C-20.35953125 10.28390625 -19.69953125 9.37640625 -19.01953125 8.44140625 C-15.2845426 3.9657683 -10.65857273 1.86520408 -5.08203125 0.44140625 C-3.38728046 0.30305925 -1.69280218 0.16043967 0 0 Z " fill="#3D3C3C" transform="translate(570.01953125,105.80859375)"/>
<path d="M0 0 C8.68672298 -0.3891901 17.54195574 1.76991689 25.0546875 6.15234375 C23.9452803 9.63905209 22.79131084 12.92718612 21.0546875 16.15234375 C17.68755864 15.53742483 14.54418191 14.68555509 11.3046875 13.58984375 C5.86955374 11.9349672 0.14629312 10.7563073 -5.203125 13.171875 C-5.77804687 13.49542969 -6.35296875 13.81898437 -6.9453125 14.15234375 C-7.27912064 17.52670561 -7.27912064 17.52670561 -6.9453125 21.15234375 C-4.35648516 23.58654892 -1.78794861 24.7236933 1.57421875 25.765625 C2.43208984 26.04470703 3.28996094 26.32378906 4.17382812 26.61132812 C5.95539185 27.17589908 7.73924021 27.73331552 9.52539062 28.28320312 C15.96061307 30.3961894 21.7136257 33.09257124 25.21826172 39.17016602 C27.32045352 44.15198015 26.96266007 50.53400426 25.21484375 55.57421875 C21.97390628 61.37953435 17.42854197 63.71370287 11.28515625 65.734375 C-1.07253582 68.05008963 -13.1167259 66.12841264 -23.546875 59.140625 C-24.00835938 58.81449219 -24.46984375 58.48835938 -24.9453125 58.15234375 C-23.60837862 54.55290639 -21.95050645 51.42108457 -19.9453125 48.15234375 C-19.12546875 48.57386719 -18.305625 48.99539062 -17.4609375 49.4296875 C-16.38328125 49.97753906 -15.305625 50.52539062 -14.1953125 51.08984375 C-13.12796875 51.63511719 -12.060625 52.18039063 -10.9609375 52.7421875 C-5.34951495 55.36618172 -0.09654807 55.73959763 6.0546875 55.15234375 C8.53519679 53.98802306 10.14894702 53.05808423 12.0546875 51.15234375 C12.36513363 47.72618302 12.36513363 47.72618302 11.0546875 44.15234375 C8.36420647 42.12231672 5.22362277 41.22648934 2.0546875 40.15234375 C0.03034223 39.45722468 -1.99000769 38.75355639 -4.00561523 38.03344727 C-5.39207563 37.54063562 -6.78477542 37.06493779 -8.18383789 36.60913086 C-13.3942177 34.78080418 -16.33576139 32.34796765 -19.9453125 28.15234375 C-22.01093646 21.95547188 -21.98441206 14.68232529 -19.5078125 8.65234375 C-13.82755314 3.11062731 -7.83838771 0.61384964 0 0 Z " fill="#3C3B3B" transform="translate(631.9453125,105.84765625)"/>
<path d="M0 0 C8.68672298 -0.3891901 17.54195574 1.76991689 25.0546875 6.15234375 C23.9452803 9.63905209 22.79131084 12.92718612 21.0546875 16.15234375 C17.68755864 15.53742483 14.54418191 14.68555509 11.3046875 13.58984375 C5.86955374 11.9349672 0.14629312 10.7563073 -5.203125 13.171875 C-5.77804687 13.49542969 -6.35296875 13.81898437 -6.9453125 14.15234375 C-7.27912064 17.52670561 -7.27912064 17.52670561 -6.9453125 21.15234375 C-4.35648516 23.58654892 -1.78794861 24.7236933 1.57421875 25.765625 C2.43208984 26.04470703 3.28996094 26.32378906 4.17382812 26.61132812 C5.95539185 27.17589908 7.73924021 27.73331552 9.52539062 28.28320312 C15.96061307 30.3961894 21.7136257 33.09257124 25.21826172 39.17016602 C27.32045352 44.15198015 26.96266007 50.53400426 25.21484375 55.57421875 C21.97390628 61.37953435 17.42854197 63.71370287 11.28515625 65.734375 C-1.07253582 68.05008963 -13.1167259 66.12841264 -23.546875 59.140625 C-24.00835937 58.81449219 -24.46984375 58.48835938 -24.9453125 58.15234375 C-23.60837862 54.55290639 -21.95050645 51.42108457 -19.9453125 48.15234375 C-19.12546875 48.57386719 -18.305625 48.99539062 -17.4609375 49.4296875 C-16.38328125 49.97753906 -15.305625 50.52539062 -14.1953125 51.08984375 C-13.12796875 51.63511719 -12.060625 52.18039063 -10.9609375 52.7421875 C-5.34951495 55.36618172 -0.09654807 55.73959763 6.0546875 55.15234375 C8.53519679 53.98802306 10.14894702 53.05808423 12.0546875 51.15234375 C12.36513363 47.72618302 12.36513363 47.72618302 11.0546875 44.15234375 C8.36420647 42.12231672 5.22362277 41.22648934 2.0546875 40.15234375 C0.03034223 39.45722468 -1.99000769 38.75355639 -4.00561523 38.03344727 C-5.39207563 37.54063562 -6.78477542 37.06493779 -8.18383789 36.60913086 C-13.3942177 34.78080418 -16.33576139 32.34796765 -19.9453125 28.15234375 C-22.01093646 21.95547188 -21.98441206 14.68232529 -19.5078125 8.65234375 C-13.82755314 3.11062731 -7.83838771 0.61384964 0 0 Z " fill="#3C3B3B" transform="translate(420.9453125,105.84765625)"/>
<path d="M0 0 C4.97976727 3.76518989 8.61318377 7.9471355 10.5625 13.9375 C11.67036837 22.18237306 10.63469898 29.22219431 5.5625 35.9375 C1.11525459 40.47550552 -3.16156241 42.31287997 -9.5 42.625 C-16.66978002 42.24139394 -20.84926841 39.52573159 -25.8125 34.5625 C-29.90922824 27.94470823 -30.42152383 20.56622084 -29.4375 12.9375 C-24.54930763 0.18204523 -12.62979184 -3.90375384 0 0 Z " fill="#FBFBFB" transform="translate(875.4375,119.0625)"/>
<path d="M0 0 C4.73505161 3.0372864 8.09390988 6.09319969 9.79296875 11.59375 C11.26594064 18.82012493 11.37048939 26.7374853 7.51953125 33.1875 C4.32585729 37.3343628 0.38758954 40.55154011 -4.75 41.8359375 C-10.66918514 42.50274345 -15.74084641 42.21193214 -20.9921875 39.24609375 C-24.98232085 36.0451201 -27.15940184 31.60773197 -28.75 26.8359375 C-30.01157404 11.64298157 -30.01157404 11.64298157 -25.18359375 5.3515625 C-18.54942329 -1.6622199 -9.14201456 -3.86977321 0 0 Z " fill="#FCFCFC" transform="translate(958.75,119.1640625)"/>
<path d="M0 0 C5.5996875 -0.12375 5.5996875 -0.12375 11.3125 -0.25 C12.46532471 -0.28641602 13.61814941 -0.32283203 14.8059082 -0.36035156 C22.54375054 -0.44197576 30.61246751 0.43155147 36.83349609 5.49121094 C40.13408622 9.01676015 40.37924586 12.80546018 40.5625 17.5 C40.30536597 23.24266003 39.74254974 26.60250405 36 31 C30.21816458 34.92295722 24.40816761 36.13635848 17.48046875 36.09765625 C16.55903076 36.09515869 15.63759277 36.09266113 14.68823242 36.09008789 C13.53299072 36.08098389 12.37774902 36.07187988 11.1875 36.0625 C5.6496875 36.0315625 5.6496875 36.0315625 0 36 C0 24.12 0 12.24 0 0 Z " fill="#F7F7F7" transform="translate(216,98)"/>
<path d="M0 0 C5.09630701 4.17191719 8.18923665 8.02640976 8.875 14.63671875 C9.05900979 20.71872669 8.40056029 25.41621383 4.63671875 30.33984375 C-0.88093856 35.38097611 -6.01580774 36.830658 -13.4375 36.7421875 C-19.13490539 35.95869918 -23.27937581 32.97570252 -26.80859375 28.51171875 C-29.80637528 23.35469598 -30.11912071 18.17607247 -29.36328125 12.33984375 C-27.62377804 5.92542567 -23.76209296 2.00813424 -18.36328125 -1.66015625 C-12.15036857 -3.775971 -5.53862078 -3.62786116 0 0 Z " fill="#DDDFFD" transform="translate(67.36328125,147.66015625)"/>
<path d="M0 0 C0 4.29 0 8.58 0 13 C-1.52625 13.2475 -3.0525 13.495 -4.625 13.75 C-11.57453126 15.15364826 -15.98061244 18.11446822 -20 24 C-22.25703618 28.42405536 -22.34230773 32.7148743 -22.4140625 37.58203125 C-22.43342865 38.39621017 -22.4527948 39.2103891 -22.4727478 40.04924011 C-22.53228752 42.63688852 -22.57882583 45.22458203 -22.625 47.8125 C-22.6632034 49.57228449 -22.7022565 51.33205074 -22.7421875 53.09179688 C-22.83796782 57.39438234 -22.92209285 61.6970553 -23 66 C-27.29 66 -31.58 66 -36 66 C-36 44.55 -36 23.1 -36 1 C-31.71 1 -27.42 1 -23 1 C-23 4.96 -23 8.92 -23 13 C-22.34 13 -21.68 13 -21 13 C-20.89558594 12.40316406 -20.79117187 11.80632812 -20.68359375 11.19140625 C-19.45236972 7.24445379 -16.39177094 5.17389986 -13 3 C-8.72421422 1.25992984 -4.63121975 0 0 0 Z " fill="#3A3939" transform="translate(320,106)"/>
<path d="M0 0 C4.62 0 9.24 0 14 0 C14 21.45 14 42.9 14 65 C9.38 65 4.76 65 0 65 C0 43.55 0 22.1 0 0 Z " fill="#3D3C3C" transform="translate(673,107)"/>
<path d="M0 0 C2.80868383 3.36137559 4.46623968 7.02462799 6.13671875 11.03125 C6.42102249 11.70418091 6.70532623 12.37711182 6.99824524 13.07043457 C7.59515185 14.48799403 8.18918984 15.90676444 8.78051758 17.32666016 C9.68608103 19.49659982 10.6051261 21.66047963 11.52539062 23.82421875 C12.10499026 25.20538384 12.68379367 26.58688338 13.26171875 27.96875 C13.53666672 28.6136438 13.81161469 29.2585376 14.09489441 29.92297363 C15.46569086 33.2458294 16 35.33073897 16 39 C5.44 39 -5.12 39 -16 39 C-14.15186713 33.45560138 -12.33774531 28.17816567 -10.1171875 22.8125 C-9.85745148 22.1839209 -9.59771545 21.5553418 -9.33010864 20.90771484 C-8.78879269 19.59980127 -8.24597066 18.29251002 -7.70166016 16.98583984 C-6.86583512 14.97798371 -6.03614432 12.96766699 -5.20703125 10.95703125 C-4.67744126 9.67953906 -4.14750631 8.40218981 -3.6171875 7.125 C-2.89958252 5.39636719 -2.89958252 5.39636719 -2.16748047 3.6328125 C-1 1 -1 1 0 0 Z " fill="#F8F8F8" transform="translate(775,101)"/>
<path d="M0 0 C3.10322009 2.18348744 5.04830864 4.85833602 6.7265625 8.21484375 C6.7265625 10.52484375 6.7265625 12.83484375 6.7265625 15.21484375 C-5.4834375 15.21484375 -17.6934375 15.21484375 -30.2734375 15.21484375 C-29.17743499 8.63882868 -27.68424992 5.44020906 -22.8359375 0.96484375 C-15.45171969 -4.0780367 -7.80822703 -4.37074063 0 0 Z " fill="#FAFAFA" transform="translate(499.2734375,119.78515625)"/>
<path d="M0 0 C3.96491035 2.26340192 6.29304974 4.50344202 8.75 8.375 C9.245 12.335 9.245 12.335 9.75 16.375 C-2.46 16.375 -14.67 16.375 -27.25 16.375 C-26.26020288 8.45662301 -25.88525592 6.1834125 -20.25 1.375 C-13.69805034 -2.45727244 -6.95102089 -3.12861392 0 0 Z " fill="#FAFAFA" transform="translate(367.25,118.625)"/>
<path d="M0 0 C3.32878632 2.46040728 4.79301948 3.89610387 5.5625 8 C4.84202557 11.8425303 3.99097304 13.45767292 1 16 C-2.99893269 16.94237143 -5.98105682 16.61136591 -9.5 14.5 C-11.61136591 10.98105682 -11.94237143 7.99893269 -11 4 C-7.75032314 0.17685075 -4.94151119 -0.92653335 0 0 Z " fill="#3E3D3D" transform="translate(683,80)"/>
</svg>
