<?xml version="1.0" encoding="UTF-8"?>
<svg version="1.1" xmlns="http://www.w3.org/2000/svg" width="985" height="253">
<path d="M0 0 C1.63219225 -0.00322803 3.26438423 -0.00659314 4.89657593 -0.01008606 C8.29678008 -0.01602345 11.69695902 -0.01793162 15.09716797 -0.01733398 C18.53732576 -0.01725285 21.97735003 -0.02418399 25.41748047 -0.0378418 C86.0118423 -0.27464363 86.0118423 -0.27464363 98.6484375 12.16796875 C111.26622664 27.10857816 109.96350397 49.12789803 109.9140625 67.60546875 C109.9154154 69.42374727 109.91736108 71.24202543 109.91986084 73.06030273 C109.92278277 76.84199521 109.91861018 80.6235922 109.90917969 84.40527344 C109.89778701 89.20220039 109.9043624 93.99890336 109.91632462 98.79582214 C109.92362324 102.54180526 109.921219 106.28773708 109.91606903 110.03372192 C109.91475453 111.80038481 109.91630099 113.56705267 109.92102814 115.33370972 C110.00451662 155.28180739 110.00451662 155.28180739 98.6484375 168.16796875 C87.92214789 177.70862359 75.59511627 179.31198441 61.71264648 179.32910156 C60.7392482 179.33406647 59.76584991 179.33903137 58.76295471 179.34414673 C55.55680623 179.35869703 52.35070727 179.36555952 49.14453125 179.37109375 C48.0431035 179.37392113 46.94167576 179.3767485 45.80687141 179.37966156 C39.97467943 179.3946278 34.14251201 179.40387263 28.31030273 179.40820312 C22.31778088 179.41367454 16.32548775 179.43768204 10.33303738 179.46617508 C5.6975898 179.48490187 1.06219613 179.49001245 -3.57328606 179.491539 C-5.78064151 179.49454495 -7.9879965 179.50250293 -10.19531441 179.51572418 C-43.20620689 179.69929051 -43.20620689 179.69929051 -56.1015625 168.85546875 C-64.19724413 159.1856268 -66.8116628 149.97340133 -66.73974609 137.45703125 C-66.74500305 136.31925232 -66.75026001 135.18147339 -66.75567627 134.00921631 C-66.7688163 130.27032503 -66.76015907 126.53186392 -66.75 122.79296875 C-66.75202245 120.18180256 -66.75493531 117.57063692 -66.75869751 114.95947266 C-66.76413959 109.49572135 -66.75700433 104.03209211 -66.74267578 98.56835938 C-66.72635214 92.27155842 -66.73164176 85.97504898 -66.748155 79.67825508 C-66.76346317 73.59509577 -66.76177451 67.51206465 -66.7530098 61.42889404 C-66.75101373 58.85178588 -66.75344614 56.27467023 -66.76044846 53.6975708 C-66.76809794 50.09115106 -66.75640889 46.48528495 -66.73974609 42.87890625 C-66.74581879 41.82201599 -66.75189148 40.76512573 -66.75814819 39.6762085 C-66.66989345 29.3245575 -63.75796792 20.40088125 -57.3515625 12.16796875 C-42.79427145 -2.11671385 -18.91993484 0.0089885 0 0 Z " fill="#5E65F7" transform="translate(66.3515625,37.83203125)"/>
<path d="M0 0 C10.33866816 5.64945799 17.08002386 13.77968616 21.4609375 24.69140625 C23.95687679 33.31092329 23.88092627 43.42922243 19.5234375 51.37890625 C19.07097656 52.25160156 18.61851562 53.12429687 18.15234375 54.0234375 C12.88927679 63.24958126 4.77270127 70.22528663 -5.4765625 73.37890625 C-9.4140625 73.56640625 -9.4140625 73.56640625 -12.4765625 73.37890625 C-12.4765625 72.71890625 -12.4765625 72.05890625 -12.4765625 71.37890625 C-13.1365625 71.37890625 -13.7965625 71.37890625 -14.4765625 71.37890625 C-14.9715625 72.86390625 -14.9715625 72.86390625 -15.4765625 74.37890625 C-17.41440515 74.23769911 -19.35183205 74.09077752 -21.2890625 73.94140625 C-22.90748047 73.81958984 -22.90748047 73.81958984 -24.55859375 73.6953125 C-27.4765625 73.37890625 -27.4765625 73.37890625 -30.4765625 72.37890625 C-30.4765625 71.71890625 -30.4765625 71.05890625 -30.4765625 70.37890625 C-31.0334375 70.27578125 -31.5903125 70.17265625 -32.1640625 70.06640625 C-37.40451629 68.5084335 -40.81095695 65.31943222 -44.4765625 61.37890625 C-45.3221875 60.47140625 -46.1678125 59.56390625 -47.0390625 58.62890625 C-54.12729942 50.02016425 -55.08839072 40.12630386 -54.4765625 29.37890625 C-52.99087124 19.63331682 -47.63405607 11.65598222 -40.0390625 5.50390625 C-28.2064061 -3.07224129 -13.74867579 -5.92472966 0 0 Z " fill="#CFD2FC" transform="translate(118.4765625,76.62109375)"/>
<path d="M0 0 C7.16183313 5.19351475 11.07912718 11.07008858 13.546875 19.5234375 C15.26647564 30.45122224 14.83603719 41.09949041 8.546875 50.5234375 C3.23412071 57.13396383 -3.04885388 61.17724437 -11.453125 62.5234375 C-19.70109832 63.24424892 -27.06299647 62.4615981 -34.453125 58.5234375 C-35.773125 57.2034375 -37.093125 55.8834375 -38.453125 54.5234375 C-38.783125 64.7534375 -39.113125 74.9834375 -39.453125 85.5234375 C-44.733125 85.5234375 -50.013125 85.5234375 -55.453125 85.5234375 C-55.453125 56.1534375 -55.453125 26.7834375 -55.453125 -3.4765625 C-50.173125 -3.4765625 -44.893125 -3.4765625 -39.453125 -3.4765625 C-39.123125 -1.1665625 -38.793125 1.1434375 -38.453125 3.5234375 C-37.88464844 3.11351563 -37.31617188 2.70359375 -36.73046875 2.28125 C-25.36061708 -5.65297036 -12.27937299 -7.39108756 0 0 Z M-34.140625 14.1484375 C-38.12325232 19.3812747 -39.80319576 25.03511884 -39.390625 31.5859375 C-38.44799384 37.97598452 -36.3986513 43.27536154 -31.328125 47.4609375 C-26.37831821 50.58768911 -20.95486521 51.11842345 -15.24609375 50.1484375 C-9.80189701 48.48290886 -6.53256708 45.22363858 -3.453125 40.5234375 C-0.39617667 34.27058863 -0.45967166 26.76618931 -2.640625 20.2109375 C-4.70924654 15.41637542 -7.8479859 12.60597317 -12.140625 9.7109375 C-20.46732049 6.72589572 -27.77119844 7.92713714 -34.140625 14.1484375 Z " fill="#373737" transform="translate(878.453125,108.4765625)"/>
<path d="M0 0 C7.64725531 4.8404605 11.49129409 12.65800147 13.49609375 21.25 C15.09641643 30.42518336 13.48531711 39.3463617 9.27734375 47.6875 C4.6846895 54.14204111 -1.4870017 59.62272724 -9.359375 61.48828125 C-18.36983679 63.00098651 -26.89323287 62.27628812 -35.03515625 57.9375 C-36.35515625 56.6175 -37.67515625 55.2975 -39.03515625 53.9375 C-39.36515625 64.1675 -39.69515625 74.3975 -40.03515625 84.9375 C-45.31515625 84.9375 -50.59515625 84.9375 -56.03515625 84.9375 C-56.03515625 55.5675 -56.03515625 26.1975 -56.03515625 -4.0625 C-50.75515625 -4.0625 -45.47515625 -4.0625 -40.03515625 -4.0625 C-39.70515625 -1.7525 -39.37515625 0.5575 -39.03515625 2.9375 C-38.41640625 2.36 -37.79765625 1.7825 -37.16015625 1.1875 C-25.10044999 -7.49548851 -12.81305802 -6.68935083 0 0 Z M-34.72265625 13.1875 C-39.59719733 18.98425155 -40.55398888 23.86612394 -40.3203125 31.29296875 C-39.6280211 37.71326023 -36.58316392 42.49055917 -32.03515625 46.9375 C-27.04336416 50.00165809 -22.15373239 50.40171234 -16.4296875 49.56640625 C-11.68847423 48.321161 -8.43425175 46.08732967 -5.75390625 41.96875 C-2.4546736 35.65307608 -0.81428377 29.57828637 -2.68359375 22.47265625 C-4.81543456 16.41421975 -7.55346615 12.38422394 -13.03515625 8.9375 C-21.20322502 6.21481041 -28.18536476 7.71441875 -34.72265625 13.1875 Z " fill="#373737" transform="translate(962.03515625,109.0625)"/>
<path d="M0 0 C4.95 0 9.9 0 15 0 C20.54609454 10.86193936 25.71636669 21.83676854 30.625 33 C31.31096598 34.5533251 31.99716834 36.10654584 32.68359375 37.65966797 C34.09013953 40.84457536 35.49392264 44.03068004 36.89550781 47.21777344 C38.63559188 51.17427068 40.38212416 55.12788012 42.13070679 59.08062744 C43.4450835 62.05384853 44.75593544 65.02861252 46.06561279 68.00390625 C46.68631103 69.41291435 47.30808906 70.8214473 47.93096924 72.22949219 C48.79090473 74.17487623 49.64610502 76.12227107 50.5 78.0703125 C50.9846875 79.17133301 51.469375 80.27235352 51.96875 81.40673828 C53 84 53 84 53 86 C47.39 86 41.78 86 36 86 C32.90988139 79.98679621 30.3939397 74.3838392 28 68 C14.47 68 0.94 68 -13 68 C-15.31 73.61 -17.62 79.22 -20 85 C-21 86 -21 86 -24.81640625 86.09765625 C-26.39846682 86.09098089 -27.98051159 86.07901875 -29.5625 86.0625 C-30.36880859 86.05798828 -31.17511719 86.05347656 -32.00585938 86.04882812 C-34.00393756 86.03700518 -36.00197783 86.01906914 -38 86 C-34.52038605 76.60750316 -30.60684253 67.47842056 -26.4375 58.375 C-25.19359499 55.64400935 -23.95232874 52.91182153 -22.7109375 50.1796875 C-22.24413322 49.15370453 -22.24413322 49.15370453 -21.76789856 48.10699463 C-18.65463927 41.25769236 -15.60587412 34.38060836 -12.5625 27.5 C-8.47990646 18.28082973 -4.31204068 9.11408599 0 0 Z M7 18 C5.31965615 21.83771821 3.64764938 25.67893335 1.98291016 29.5234375 C1.4167681 30.82778756 0.8484529 32.13119683 0.27783203 33.43359375 C-0.54723522 35.31781038 -1.36413791 37.20539755 -2.1796875 39.09375 C-2.67194824 40.22490234 -3.16420898 41.35605469 -3.67138672 42.52148438 C-5.33986718 46.68183233 -5.33986718 46.68183233 -7 54 C2.57 54 12.14 54 22 54 C19.45585549 45.49160996 19.45585549 45.49160996 16.30078125 37.3359375 C15.57084961 35.62470703 15.57084961 35.62470703 14.82617188 33.87890625 C14.0769043 32.14447266 14.0769043 32.14447266 13.3125 30.375 C12.80138672 29.18003906 12.29027344 27.98507813 11.76367188 26.75390625 C10.5138875 23.8338493 9.25924806 20.91598523 8 18 C7.67 18 7.34 18 7 18 Z " fill="#373737" transform="translate(761,84)"/>
<path d="M0 0 C1.21324699 -0.00855011 1.21324699 -0.00855011 2.45100403 -0.01727295 C4.17524909 -0.02674938 5.89951248 -0.03326735 7.6237793 -0.03710938 C10.21372434 -0.04666901 12.80282468 -0.07760193 15.39257812 -0.109375 C43.09928506 -0.28866646 43.09928506 -0.28866646 53.08203125 9.203125 C60.61911152 18.40091787 61.13934222 27.66268826 60.08203125 39.203125 C59.23603708 42.62388403 58.01615584 45.27302263 56.08203125 48.203125 C55.42203125 49.255 54.76203125 50.306875 54.08203125 51.390625 C49.24325886 56.80400161 41.12997653 60.08432308 34.08203125 61.203125 C31.95175119 61.2825175 29.81923503 61.31088426 27.6875 61.30078125 C26.48544922 61.29755859 25.28339844 61.29433594 24.04492188 61.29101562 C22.79904297 61.28263672 21.55316406 61.27425781 20.26953125 61.265625 C19.00431641 61.26111328 17.73910156 61.25660156 16.43554688 61.25195312 C13.31768805 61.24018762 10.1998536 61.22225274 7.08203125 61.203125 C7.08203125 69.453125 7.08203125 77.703125 7.08203125 86.203125 C1.80203125 86.203125 -3.47796875 86.203125 -8.91796875 86.203125 C-8.94051924 75.13777279 -8.95888353 64.07243572 -8.96978092 53.00706577 C-8.97500988 47.86952934 -8.98210776 42.73200937 -8.9934082 37.59448242 C-9.00423662 32.6408109 -9.01024549 27.68715526 -9.01284599 22.73347282 C-9.01470032 20.83914884 -9.01832109 18.94482576 -9.02369881 17.0505085 C-9.03090864 14.40678114 -9.03195972 11.76312029 -9.03149414 9.11938477 C-9.03508942 8.32816727 -9.03868469 7.53694977 -9.04238892 6.72175598 C-9.02773292 -0.91804466 -6.91159436 0.037556 0 0 Z M7.08203125 14.203125 C7.08203125 25.093125 7.08203125 35.983125 7.08203125 47.203125 C11.06265625 47.265 15.04328125 47.326875 19.14453125 47.390625 C20.385979 47.41793701 21.62742676 47.44524902 22.90649414 47.47338867 C29.86301394 47.5256342 35.29996129 47.38311656 40.82421875 42.73828125 C44.92270911 37.41024379 45.53613499 33.90115518 45.08203125 27.203125 C43.26329656 21.34275767 40.99024045 18.60882118 36.08203125 15.203125 C32.79121995 14.07317414 29.68295959 14.08781414 26.22265625 14.10546875 C25.21750977 14.10796631 24.21236328 14.11046387 23.17675781 14.11303711 C21.27361816 14.12669312 21.27361816 14.12669312 19.33203125 14.140625 C13.26828125 14.1715625 13.26828125 14.1715625 7.08203125 14.203125 Z " fill="#373737" transform="translate(207.91796875,83.796875)"/>
<path d="M0 0 C7.54366794 5.1748152 10.29691582 11.064596 12.77734375 19.74609375 C12.77734375 25.02609375 12.77734375 30.30609375 12.77734375 35.74609375 C-3.06265625 36.07609375 -18.90265625 36.40609375 -35.22265625 36.74609375 C-31.05833892 45.62756648 -31.05833892 45.62756648 -23.22265625 49.74609375 C-15.20145937 50.87767333 -9.03900009 50.11884263 -2.22265625 45.74609375 C-1.56265625 45.08609375 -0.90265625 44.42609375 -0.22265625 43.74609375 C2.42470968 43.95594593 3.55520636 44.53363666 5.48046875 46.375 C5.9909375 47.01308594 6.50140625 47.65117187 7.02734375 48.30859375 C7.80851562 49.26958984 7.80851562 49.26958984 8.60546875 50.25 C8.9921875 50.74371094 9.37890625 51.23742187 9.77734375 51.74609375 C0.72660294 60.4767119 -8.46094695 63.09698675 -20.875 62.95703125 C-29.39805032 62.41998957 -36.80367293 59.41619568 -43.22265625 53.74609375 C-50.65369644 45.27981323 -52.70589573 37.84563202 -52.46875 26.76953125 C-51.64959461 16.70562223 -47.51405494 9.94212803 -40.41015625 2.99609375 C-28.42184704 -5.46624216 -13.08965711 -7.384499 0 0 Z M-29.91015625 11.37109375 C-33.55304883 15.11244289 -36.22265625 19.44332429 -36.22265625 24.74609375 C-24.67265625 24.74609375 -13.12265625 24.74609375 -1.22265625 24.74609375 C-2.21240164 17.81787599 -3.06777639 14.36013706 -8.41015625 9.93359375 C-15.84810461 6.79312666 -22.93365481 7.15274404 -29.91015625 11.37109375 Z " fill="#373737" transform="translate(502.22265625,108.25390625)"/>
<path d="M0 0 C7.02393278 5.81220169 9.83507178 11.42304155 12.046875 20.0859375 C12.42862419 24.76236508 12.56833587 29.46174543 12.296875 34.1484375 C11.296875 35.1484375 11.296875 35.1484375 9.35435486 35.26869202 C8.50386063 35.26647141 7.65336639 35.26425079 6.77709961 35.26196289 C5.33571877 35.26184959 5.33571877 35.26184959 3.86521912 35.26173401 C2.820439 35.25657272 1.77565887 35.25141144 0.69921875 35.24609375 C-0.36477646 35.2446788 -1.42877167 35.24326385 -2.52500916 35.24180603 C-5.93857583 35.23618814 -9.352078 35.22363261 -12.765625 35.2109375 C-15.07356676 35.20592481 -17.38150955 35.2013615 -19.68945312 35.19726562 C-25.36069926 35.1862129 -31.03190753 35.16945737 -36.703125 35.1484375 C-36.10853092 36.42445948 -35.50362237 37.69567779 -34.89453125 38.96484375 C-34.39095093 40.02747437 -34.39095093 40.02747437 -33.87719727 41.11157227 C-31.52485523 45.19258487 -28.17253949 47.65863267 -23.703125 49.1484375 C-16.06462158 49.96228109 -10.51330885 49.23239505 -3.859375 45.33984375 C-1.703125 44.1484375 -1.703125 44.1484375 2.296875 43.1484375 C4.276875 45.4584375 6.256875 47.7684375 8.296875 50.1484375 C5.45832263 55.82554223 1.609003 57.85238741 -4.21875 60.1328125 C-14.50906611 63.32220872 -25.76477229 63.69217068 -35.703125 59.1484375 C-43.79921876 54.31643788 -49.00358492 48.28004201 -51.96875 39.3359375 C-54.44647301 28.58156528 -53.19352606 18.71329408 -47.703125 9.1484375 C-37.24152529 -5.28430006 -15.08157488 -10.33044291 0 0 Z M-33.140625 13.3984375 C-36.094994 16.93357989 -36.28698762 19.19195666 -37.703125 24.1484375 C-26.153125 24.1484375 -14.603125 24.1484375 -2.703125 24.1484375 C-2.703125 17.90242331 -2.92615779 16.72055571 -6.703125 12.1484375 C-14.85004038 5.2976223 -25.79204162 5.45982188 -33.140625 13.3984375 Z " fill="#373737" transform="translate(374.703125,108.8515625)"/>
<path d="M0 0 C6.57221682 5.37164238 9.41331234 12.2053122 10.2624054 20.59176636 C10.34337583 23.26680963 10.33845714 25.925721 10.29296875 28.6015625 C10.28872391 29.564039 10.28447906 30.5265155 10.28010559 31.51815796 C10.26348275 34.55407204 10.22586256 37.58929088 10.1875 40.625 C10.17243193 42.69920908 10.15874727 44.77342869 10.14648438 46.84765625 C10.11363319 51.8987002 10.06196676 56.94923275 10 62 C4.72 62 -0.56 62 -6 62 C-6.01458252 60.82493896 -6.02916504 59.64987793 -6.04418945 58.43920898 C-6.10239511 54.05739728 -6.17962608 49.67608752 -6.26245117 45.29467773 C-6.29559607 43.40250833 -6.32366017 41.51024254 -6.34643555 39.61791992 C-6.38017421 36.88939546 -6.43249865 34.161746 -6.48828125 31.43359375 C-6.49467117 30.59477158 -6.5010611 29.7559494 -6.50764465 28.89170837 C-6.63984 23.54689335 -7.50067981 19.75004899 -10 15 C-13.16949123 12.02860197 -15.90077642 11.08455566 -20.25 10.75 C-25.70622515 11.11374834 -29.51265469 12.43225764 -33.3125 16.4375 C-33.869375 17.283125 -34.42625 18.12875 -35 19 C-35.35626465 19.52883789 -35.7125293 20.05767578 -36.07958984 20.60253906 C-37.50345024 24.31137435 -37.35936934 27.98043914 -37.4140625 31.921875 C-37.43342865 32.78186096 -37.4527948 33.64184692 -37.4727478 34.52789307 C-37.53241814 37.26849521 -37.5788786 40.00913964 -37.625 42.75 C-37.66319134 44.61069517 -37.70224375 46.47137288 -37.7421875 48.33203125 C-37.83810935 52.88787864 -37.92218668 57.44380879 -38 62 C-43.28 62 -48.56 62 -54 62 C-54 40.55 -54 19.1 -54 -3 C-48.72 -3 -43.44 -3 -38 -3 C-37.67 -0.36 -37.34 2.28 -37 5 C-36.59910156 4.60167969 -36.19820312 4.20335938 -35.78515625 3.79296875 C-25.84103565 -5.47468106 -11.81000962 -7.12222045 0 0 Z " fill="#383838" transform="translate(582,108)"/>
<path d="M0 0 C-0.57634139 4.75481646 -2.55068521 7.97048212 -5 12 C-5.78375 11.731875 -6.5675 11.46375 -7.375 11.1875 C-8.57125 10.795625 -9.7675 10.40375 -11 10 C-11.73863281 9.72414063 -12.47726562 9.44828125 -13.23828125 9.1640625 C-19.8063952 6.88041204 -25.16335982 6.92121457 -32 8 C-32.41743334 12.04510136 -32.41743334 12.04510136 -30.8046875 15.578125 C-28.60766953 17.30910886 -26.58845313 18.04876319 -23.9375 18.9375 C-22.96167969 19.27910156 -21.98585938 19.62070313 -20.98046875 19.97265625 C-19.50513672 20.48119141 -19.50513672 20.48119141 -18 21 C-10.81232113 23.48604233 -3.41124463 26.14525328 0.16796875 33.3515625 C1.91659442 38.9176104 1.675533 44.76229694 0 50.3125 C-3.94553297 55.61430993 -9.06637754 59.49608063 -15.6796875 60.75390625 C-28.92511693 62.15872452 -39.70585722 60.05535339 -51 53 C-50.27758802 48.88295306 -48.97646289 45.69512628 -47 42 C-43.68421954 42.40191278 -41.80021963 43.12639167 -38.9375 44.9375 C-33.61801203 48.11522476 -26.86031892 49.49322644 -20.70703125 48.70703125 C-17.58446488 47.86238188 -17.58446488 47.86238188 -15 46 C-14.41557037 43.12762267 -14.41557037 43.12762267 -15 40 C-20.0297543 35.94476059 -25.54106649 34.27818725 -31.63476562 32.37695312 C-37.78995022 30.34734599 -42.99032246 27.72278893 -46.9375 22.375 C-48.81290777 16.41782237 -49.3406563 9.84371736 -46.4375 4.125 C-35.0697697 -10.4490132 -14.85779186 -7.92891777 0 0 Z " fill="#373737" transform="translate(652,110)"/>
<path d="M0 0 C-0.64449607 3.01217112 -1.65022182 5.51655836 -3.0625 8.25 C-3.42472656 8.95640625 -3.78695312 9.6628125 -4.16015625 10.390625 C-4.43730469 10.92171875 -4.71445312 11.4528125 -5 12 C-6.1446875 11.5978125 -6.1446875 11.5978125 -7.3125 11.1875 C-8.529375 10.795625 -9.74625 10.40375 -11 10 C-11.82371094 9.72414063 -12.64742188 9.44828125 -13.49609375 9.1640625 C-20.03482353 7.14215741 -25.26399155 6.78722624 -32 8 C-32.33380814 11.37436186 -32.33380814 11.37436186 -32 15 C-28.63140025 18.56569867 -23.80341784 19.44661346 -19.25 20.8125 C-11.273084 23.34833466 -5.05487233 25.79955055 0 32.75 C1.84395394 38.7428503 1.98568296 44.5022035 -0.5625 50.3125 C-3.67579248 55.71979747 -7.86233384 58.22601743 -13.625 60.3125 C-27.17816992 63.038863 -39.44158724 60.22044056 -51 53 C-50.27758802 48.88295306 -48.97646289 45.69512628 -47 42 C-44.16312189 42.60345872 -41.99885473 43.48531468 -39.5 44.9375 C-33.28181865 48.1105159 -25.61197899 50.07363501 -18.75 48.125 C-17.8425 47.75375 -16.935 47.3825 -16 47 C-15.67 44.69 -15.34 42.38 -15 40 C-19.33260606 36.84538361 -23.11024817 35.14840085 -28.3125 33.625 C-35.76590901 31.2896351 -42.20984562 28.63565571 -47.0625 22.3125 C-48.75506692 16.33209688 -49.32955568 9.82185106 -46.4375 4.125 C-35.03271979 -10.49651309 -14.91553144 -7.94064263 0 0 Z " fill="#373737" transform="translate(443,110)"/>
<path d="M0 0 C0 4.62 0 9.24 0 14 C-2.784375 14.5878125 -2.784375 14.5878125 -5.625 15.1875 C-11.1167538 16.57822682 -14.23914698 17.75698633 -18 22 C-20.80072977 27.39848365 -21.46188214 31.7469568 -21.51171875 37.77734375 C-21.52966995 38.58869278 -21.54762115 39.40004181 -21.56611633 40.23597717 C-21.61988463 42.80310008 -21.65400616 45.3700407 -21.6875 47.9375 C-21.72070276 49.68817623 -21.75519513 51.4388285 -21.79101562 53.18945312 C-21.87799751 57.45965676 -21.93834875 61.72905664 -22 66 C-27.28 66 -32.56 66 -38 66 C-38 44.55 -38 23.1 -38 1 C-32.72 1 -27.44 1 -22 1 C-21.67 3.64 -21.34 6.28 -21 9 C-20.5875 8.60167969 -20.175 8.20335938 -19.75 7.79296875 C-13.44035476 2.0044326 -8.61128895 0 0 0 Z " fill="#373737" transform="translate(318,104)"/>
<path d="M0 0 C5.08718943 4.1622459 7.50781967 8.42677079 8.390625 14.8359375 C8.75373955 21.3885046 7.98491193 25.35105039 3.703125 30.37890625 C-1.71772818 35.53866329 -6.11364033 36.36786212 -13.46484375 36.28125 C-18.61653663 35.70972167 -21.85020807 33.27409376 -25.3125 29.4375 C-29.66775183 23.14658068 -29.57934889 18.56891292 -29 11 C-27.05205379 4.6978211 -22.15540605 0.73547333 -16.5 -2.375 C-10.26357826 -3.93410544 -5.61933917 -3.01779326 0 0 Z " fill="#DCDEFD" transform="translate(67,146)"/>
<path d="M0 0 C4.95 0 9.9 0 15 0 C15 21.45 15 42.9 15 65 C10.05 65 5.1 65 0 65 C0 43.55 0 22.1 0 0 Z " fill="#383838" transform="translate(666,105)"/>
<path d="M0 0 C0.33 0 0.66 0 1 0 C2.12137402 10.32003347 2.16362374 20.58391673 2.16796875 30.94921875 C2.17119147 32.7746432 2.17455626 34.6000674 2.17805481 36.42549133 C2.18401069 40.23703611 2.1858984 44.04855833 2.18530273 47.86010742 C2.18520137 52.69639663 2.19884292 57.53253819 2.21607494 62.36879253 C2.22730296 66.1362217 2.22921865 69.90361639 2.22869301 73.67106056 C2.22985734 75.45168376 2.23418978 77.23230832 2.24202538 79.01291466 C2.40176524 119.06199692 2.40176524 119.06199692 -9 132 C-19.8142299 141.61887461 -32.23116538 143.1674455 -46.15795898 143.11352539 C-47.15384537 143.11367142 -48.14973175 143.11381744 -49.17579651 143.1139679 C-52.44925151 143.11327433 -55.72264876 143.10550805 -58.99609375 143.09765625 C-61.27295399 143.09579009 -63.54981463 143.09436712 -65.82667542 143.09336853 C-71.80578733 143.08955892 -77.78487477 143.07974195 -83.76397705 143.06866455 C-89.87064279 143.05841694 -95.9773125 143.05386374 -102.08398438 143.04882812 C-114.05600031 143.03811826 -126.02799811 143.02106057 -138 143 C-138 142.67 -138 142.34 -138 142 C-132.41395048 141.06215804 -126.99132417 140.82598839 -121.33276367 140.77880859 C-120.38885773 140.7673027 -119.44495178 140.75579681 -118.47244263 140.74394226 C-115.3709836 140.70743337 -112.26950415 140.67768357 -109.16796875 140.6484375 C-107.00799791 140.62530883 -104.84802987 140.60191839 -102.68806458 140.57827759 C-98.17170694 140.52993391 -93.65533138 140.48498128 -89.13891602 140.44238281 C-83.34028073 140.38738414 -77.54178112 140.32357052 -71.74326611 140.25720787 C-67.28849192 140.20724273 -62.83367905 140.16207618 -58.37883949 140.11836624 C-56.2397127 140.09676176 -54.10060099 140.07360865 -51.9615078 140.0489006 C-48.98111633 140.01515958 -46.00073545 139.98790376 -43.02026367 139.96240234 C-42.1314299 139.95102737 -41.24259613 139.9396524 -40.326828 139.92793274 C-34.2284961 139.88575195 -34.2284961 139.88575195 -32 141 C-31.67 140.01 -31.34 139.02 -31 138 C-30.34 137.67 -29.68 137.34 -29 137 C-28.34 136.01 -27.68 135.02 -27 134 C-26.01 134.33 -25.02 134.66 -24 135 C-24 135.66 -24 136.32 -24 137 C-22.5414128 136.35474023 -21.08313863 135.7087728 -19.625 135.0625 C-18.81289062 134.70285156 -18.00078125 134.34320313 -17.1640625 133.97265625 C-15.76316215 133.3430097 -14.37374716 132.68687358 -13 132 C-13 130.68 -13 129.36 -13 128 C-12.34 127.34 -11.68 126.68 -11 126 C-10.01 126.33 -9.02 126.66 -8 127 C-8 126.01 -8 125.02 -8 124 C-7.34 123.67 -6.68 123.34 -6 123 C-6 122.38511719 -6 121.77023438 -6 121.13671875 C-6 117.7578125 -6 114.37890625 -6 111 C-6.02320313 109.9996875 -6.04640625 108.999375 -6.0703125 107.96875 C-6.08835938 106.8240625 -6.10640625 105.679375 -6.125 104.5 C-6.14820313 103.3553125 -6.17140625 102.210625 -6.1953125 101.03125 C-6 98 -6 98 -4 95 C-3.34 95 -2.68 95 -2 95 C-0.62156733 70.01590778 -0.90012805 45.01237575 -1 20 C-0.67 20 -0.34 20 0 20 C0 13.4 0 6.8 0 0 Z " fill="#435ED2" transform="translate(174,74)"/>
<path d="M0 0 C1.66007952 0.00187101 3.3201596 0.00329167 4.98023987 0.00428772 C9.29551792 0.00805923 13.61076094 0.01784192 17.92602539 0.0289917 C22.3510694 0.03932294 26.77611921 0.04381013 31.20117188 0.04882812 C39.84376587 0.05947047 48.48633167 0.07648018 57.12890625 0.09765625 C57.12890625 0.75765625 57.12890625 1.41765625 57.12890625 2.09765625 C56.24179962 2.10796371 55.35469299 2.11827118 54.44070435 2.12889099 C45.99919187 2.22767716 37.5577359 2.3302914 29.11631966 2.43699551 C24.77857706 2.49169756 20.44082747 2.54502078 16.10302734 2.5949707 C11.90135901 2.64340751 7.69975458 2.69575606 3.49816513 2.750597 C1.91097523 2.77066846 0.32376809 2.78942979 -1.26345444 2.80673027 C-12.49009178 2.93031908 -23.66581703 3.39406237 -34.87109375 4.09765625 C-35.20109375 6.07765625 -35.53109375 8.05765625 -35.87109375 10.09765625 C-36.20109375 9.43765625 -36.53109375 8.77765625 -36.87109375 8.09765625 C-37.53109375 8.09765625 -38.19109375 8.09765625 -38.87109375 8.09765625 C-38.87109375 7.43765625 -38.87109375 6.77765625 -38.87109375 6.09765625 C-42.98068414 6.5542774 -45.18786479 6.90333606 -47.87109375 10.09765625 C-48.86109375 10.75765625 -49.85109375 11.41765625 -50.87109375 12.09765625 C-51.86109375 13.58265625 -51.86109375 13.58265625 -52.87109375 15.09765625 C-53.20109375 14.43765625 -53.53109375 13.77765625 -53.87109375 13.09765625 C-57.56859116 17.1776534 -59.13006015 20.96160713 -60.87109375 26.09765625 C-60.21109375 26.42765625 -59.55109375 26.75765625 -58.87109375 27.09765625 C-59.20109375 28.41765625 -59.53109375 29.73765625 -59.87109375 31.09765625 C-60.53109375 30.76765625 -61.19109375 30.43765625 -61.87109375 30.09765625 C-62.86109375 31.08765625 -63.85109375 32.07765625 -64.87109375 33.09765625 C-64.83929912 24.73566772 -63.28417784 18.59779411 -57.87109375 12.09765625 C-43.11116013 -2.27675671 -19.10635118 -0.06439753 0 0 Z " fill="#8575E6" transform="translate(66.87109375,37.90234375)"/>
<path d="M0 0 C0.66 0 1.32 0 2 0 C2 0.99 2 1.98 2 3 C2.66 3 3.32 3 4 3 C4.33 2.01 4.66 1.02 5 0 C5 0.66 5 1.32 5 2 C6.32 2 7.64 2 9 2 C9.33 1.34 9.66 0.68 10 0 C18.26747851 -0.23658921 25.92046224 0.18655665 34 2 C34.33 1.34 34.66 0.68 35 0 C36.36125 0.2784375 36.36125 0.2784375 37.75 0.5625 C40.68314324 0.95734621 42.2644657 0.94691572 45 0 C44.34 1.98 43.68 3.96 43 6 C43.66 6.66 44.32 7.32 45 8 C45.99 7.979375 46.98 7.95875 48 7.9375 C48.99 7.958125 49.98 7.97875 51 8 C53.56687367 11.8503105 52.83288724 13.58569763 52 18 C53.65 18 55.3 18 57 18 C57.495 20.97 57.495 20.97 58 24 C58.99 24 59.98 24 61 24 C60.67 28.29 60.34 32.58 60 37 C59.34 37 58.68 37 58 37 C57.79246094 36.26136719 57.58492188 35.52273437 57.37109375 34.76171875 C53.13796591 20.822507 46.80769473 11.82709953 33.85546875 4.84375 C26.33197729 1.73653364 16.12535144 1.69469467 8.28515625 3.69140625 C6.0362539 4.63602429 4.06138532 5.69723625 2 7 C1.19691406 7.5053125 0.39382812 8.010625 -0.43359375 8.53125 C-2.65392107 9.98067968 -4.83086218 11.47550555 -7 13 C-7.99 13.66 -8.98 14.32 -10 15 C-9.34 12.69 -8.68 10.38 -8 8 C-6.68 8.33 -5.36 8.66 -4 9 C-4 8.34 -4 7.68 -4 7 C-3.34 6.67 -2.68 6.34 -2 6 C-1.27306096 4.02111039 -0.60183749 2.02045442 0 0 Z " fill="#7C80EA" transform="translate(83,72)"/>
<path d="M0 0 C0.598125 0.185625 1.19625 0.37125 1.8125 0.5625 C4.16408762 1.22093687 4.16408762 1.22093687 7 0 C5.57062805 3.81165853 3.8171042 7.35364647 1.90234375 10.9375 C-1.55499808 18.83999561 -1.32037052 29.56519932 1.75 37.5 C3.48610792 41.25541076 5.593399 44.6307586 8 48 C8.33 48.7425 8.66 49.485 9 50.25 C10.28579481 52.50014092 11.68143492 52.95290609 14 54 C14.33 54.66 14.66 55.32 15 56 C12.525 56.495 12.525 56.495 10 57 C9.979375 58.2375 9.95875 59.475 9.9375 60.75 C9.92589844 61.44609375 9.91429688 62.1421875 9.90234375 62.859375 C9.92751652 64.99203701 9.92751652 64.99203701 10.5 66.96875 C11.07269733 69.29533289 11.097682 71.35762393 11.0625 73.75 C11.05347656 74.54921875 11.04445313 75.3484375 11.03515625 76.171875 C11.02355469 76.77515625 11.01195313 77.3784375 11 78 C10.67 78 10.34 78 10 78 C9.87882812 77.19175781 9.75765625 76.38351563 9.6328125 75.55078125 C9.46523437 74.48214844 9.29765625 73.41351563 9.125 72.3125 C8.96257812 71.25675781 8.80015625 70.20101562 8.6328125 69.11328125 C7.6800488 63.77112497 7.6800488 63.77112497 4.3125 59.875 C3.1678125 59.441875 3.1678125 59.441875 2 59 C0.74853182 58.46173411 -0.50138445 57.91985042 -1.75 57.375 C-2.8225 56.92125 -3.895 56.4675 -5 56 C-4.01 55.34 -3.02 54.68 -2 54 C-0.35480008 48.31658209 -0.68936839 41.87459197 -1 36 C-1.33 35.67 -1.66 35.34 -2 35 C-2.09899441 33.60567314 -2.13079563 32.20642894 -2.1328125 30.80859375 C-2.13410156 29.94556641 -2.13539062 29.08253906 -2.13671875 28.19335938 C-2.13285156 27.28392578 -2.12898438 26.37449219 -2.125 25.4375 C-2.12886719 24.55513672 -2.13273437 23.67277344 -2.13671875 22.76367188 C-2.1288166 17.41786642 -1.77765391 12.28928098 -1 7 C-0.01 7 0.98 7 2 7 C1.42415568 4.61435923 0.77772405 2.33317216 0 0 Z " fill="#7175E5" transform="translate(65,88)"/>
<path d="M0 0 C2.16015625 0.3515625 2.16015625 0.3515625 4.66015625 2.0390625 C6.3799742 4.6904485 7.08468157 6.18162606 7.16015625 9.3515625 C5.99128609 12.48905609 5.01589443 14.64863471 2.41015625 16.7890625 C-0.97751429 17.63598014 -3.47128398 17.19370244 -6.83984375 16.3515625 C-9.23214016 14.52586261 -10.48194605 13.14405026 -11.71484375 10.4140625 C-11.9251445 6.94410018 -10.68266237 4.40445303 -8.5390625 1.7265625 C-5.82403789 -0.47042293 -3.37184788 -0.12061895 0 0 Z " fill="#373737" transform="translate(675.83984375,78.6484375)"/>
<path d="M0 0 C0.33 0 0.66 0 1 0 C2.13794351 10.37921273 2.14642847 20.70014556 2.1328125 31.125 C2.13348785 32.96240247 2.13445979 34.79980486 2.13571167 36.63720703 C2.13717777 40.4697353 2.13506929 44.30224011 2.13037109 48.13476562 C2.12467449 53.01634591 2.12795935 57.89787119 2.13394356 62.77944946 C2.13757867 66.56811935 2.1363971 70.35677647 2.13381577 74.14544678 C2.13315464 75.9441529 2.13394602 77.74286023 2.13629532 79.54156494 C2.14602191 89.07860688 2.04094404 98.50552195 1 108 C0.67 108 0.34 108 0 108 C-0.96097956 78.66200953 -1.12007635 49.35220086 -1 20 C-0.67 20 -0.34 20 0 20 C0 13.4 0 6.8 0 0 Z " fill="#4B65DE" transform="translate(174,74)"/>
<path d="M0 0 C0.33 0 0.66 0 1 0 C1.0746515 5.94072787 1.12883772 11.8811773 1.16479492 17.82226562 C1.17979884 19.83956667 1.20020855 21.85683556 1.22631836 23.87402344 C1.26307353 26.78849263 1.27981068 29.70252726 1.29296875 32.6171875 C1.30845261 33.50614716 1.32393646 34.39510681 1.33988953 35.31100464 C1.3415596 41.65054006 0.11483335 47.03322549 -2 53 C-2.99 53 -3.98 53 -5 53 C-5 49 -5 45 -5 41 C-5.02320313 39.9996875 -5.04640625 38.999375 -5.0703125 37.96875 C-5.09738281 36.25171875 -5.09738281 36.25171875 -5.125 34.5 C-5.14820313 33.3553125 -5.17140625 32.210625 -5.1953125 31.03125 C-5 28 -5 28 -3 25 C-2.34 25 -1.68 25 -1 25 C-0.67 16.75 -0.34 8.5 0 0 Z " fill="#3659EF" transform="translate(173,144)"/>
<path d="M0 0 C0.66 0.33 1.32 0.66 2 1 C2 13.30769231 2 13.30769231 -1 20 C-1.33 20.9075 -1.66 21.815 -2 22.75 C-3 25 -3 25 -4.625 26.4375 C-6.33119503 28.05321236 -6.33119503 28.05321236 -6.1875 31.1875 C-6.125625 32.115625 -6.06375 33.04375 -6 34 C-6.99 34 -7.98 34 -9 34 C-13.43496979 35.23400364 -13.43496979 35.23400364 -17 38 C-20.31558143 40.24025773 -23.03433801 41.43347686 -27 42 C-27 41.34 -27 40.68 -27 40 C-25.14638492 38.82633941 -23.23970308 37.73595427 -21.3125 36.6875 C-12.27867449 31.52531399 -5.53897625 24.34744064 -1.625 14.5625 C-0.77684437 9.72801289 -0.33632614 4.89443043 0 0 Z " fill="#5563D6" transform="translate(141,109)"/>
<path d="M0 0 C0.66 0 1.32 0 2 0 C2 0.99 2 1.98 2 3 C2.66 3 3.32 3 4 3 C4.33 2.01 4.66 1.02 5 0 C5 0.66 5 1.32 5 2 C6.32 2 7.64 2 9 2 C9.33 1.34 9.66 0.68 10 0 C19.56470344 -0.29032827 28.57182803 0.53948097 38 2 C38.495 3.98 38.495 3.98 39 6 C36.18411426 5.48802077 33.54072432 4.85384128 30.80859375 3.984375 C22.30078413 1.78543344 11.91545311 1.47945898 4.02734375 5.71875 C3.35832031 6.1415625 2.68929687 6.564375 2 7 C1.19691406 7.5053125 0.39382812 8.010625 -0.43359375 8.53125 C-2.65392107 9.98067968 -4.83086218 11.47550555 -7 13 C-7.99 13.66 -8.98 14.32 -10 15 C-9.34 12.69 -8.68 10.38 -8 8 C-6.68 8.33 -5.36 8.66 -4 9 C-4 8.34 -4 7.68 -4 7 C-3.34 6.67 -2.68 6.34 -2 6 C-1.27306096 4.02111039 -0.60183749 2.02045442 0 0 Z " fill="#908BEA" transform="translate(83,72)"/>
<path d="M0 0 C-1.36756757 5.59459459 -1.36756757 5.59459459 -4.4375 7.5625 C-5.283125 8.036875 -6.12875 8.51125 -7 9 C-7.515625 9.86625 -8.03125 10.7325 -8.5625 11.625 C-10 14 -10 14 -12 14.75 C-12.66 14.8325 -13.32 14.915 -14 15 C-14.99 15.33 -15.98 15.66 -17 16 C-19.6875 15.5625 -19.6875 15.5625 -22 15 C-22 14.34 -22 13.68 -22 13 C-20.1746875 12.38125 -20.1746875 12.38125 -18.3125 11.75 C-13.51763547 9.93710069 -10.11505128 7.87328616 -7.4375 3.375 C-5.54075426 0.24124617 -3.56527493 -1.78263746 0 0 Z " fill="#4F5CCE" transform="translate(80,169)"/>
<path d="M0 0 C13.78202038 -0.51468126 26.65713402 0.19597045 38 9 C41.54790065 12.34516347 44.05513546 15.13766339 45 20 C44.01 19.67 43.02 19.34 42 19 C42 18.01 42 17.02 42 16 C41.34 16 40.68 16 40 16 C39.5875 15.236875 39.175 14.47375 38.75 13.6875 C36.61384819 10.40698115 34.55420317 9.50066356 31 8 C31 7.34 31 6.68 31 6 C30.319375 5.87625 29.63875 5.7525 28.9375 5.625 C26 5 26 5 22.90625 4 C18.49677072 2.72624058 14.12796127 2.55158513 9.5625 2.375 C8.32209961 2.31699219 8.32209961 2.31699219 7.05664062 2.2578125 C5.03808927 2.16446908 3.01907669 2.08119039 1 2 C0.67 1.34 0.34 0.68 0 0 Z " fill="#6E6CDC" transform="translate(125,39)"/>
<path d="M0 0 C-1.20381448 2.49361571 -2.45428722 4.68143083 -4 7 C-4.33 6.34 -4.66 5.68 -5 5 C-8.69749741 9.07999715 -10.2589664 12.86395088 -12 18 C-11.34 18.33 -10.68 18.66 -10 19 C-10.33 20.32 -10.66 21.64 -11 23 C-11.66 22.67 -12.32 22.34 -13 22 C-13.99 22.99 -14.98 23.98 -16 25 C-15.96286435 15.23332502 -13.32879849 8.32879849 -6.375 1.375 C-4 0 -4 0 0 0 Z " fill="#8C72EC" transform="translate(18,46)"/>
<path d="M0 0 C-0.51949219 0.21914062 -1.03898437 0.43828125 -1.57421875 0.6640625 C-6.76614497 3.02490141 -9.71594609 5.32271109 -13 10 C-14.00259507 13.00778521 -14.30314642 15.53820647 -14.5625 18.6875 C-14.64628906 19.68136719 -14.73007812 20.67523438 -14.81640625 21.69921875 C-14.87699219 22.45847656 -14.93757813 23.21773437 -15 24 C-15.33 24 -15.66 24 -16 24 C-16.08132187 21.43685501 -16.14064175 18.87631582 -16.1875 16.3125 C-16.21263672 15.59126953 -16.23777344 14.87003906 -16.26367188 14.12695312 C-16.32641087 9.54700626 -15.8888009 6.61100113 -13 3 C-10.8125 2.1875 -10.8125 2.1875 -9 2 C-9 1.34 -9 0.68 -9 0 C-5.5657338 -0.85856655 -3.38317487 -0.97591583 0 0 Z " fill="#8688EB" transform="translate(53,144)"/>
<path d="M0 0 C2.01030507 2.51288134 4.00398871 5.00558419 5.875 7.625 C8.34918033 10.39026037 10.62025473 11.52136144 14 13 C15.32 13.66 16.64 14.32 18 15 C12.555 15.495 12.555 15.495 7 16 C6.02892522 14.2922478 5.05821106 12.58428891 4.08984375 10.875 C3.18963184 9.32624833 2.22750357 7.8136662 1.25 6.3125 C0 4 0 4 0 0 Z " fill="#565DCD" transform="translate(37,168)"/>
<path d="M0 0 C0.99 0 1.98 0 3 0 C3.96205088 6.37358711 4.10655578 12.55929529 4 19 C3.87625 18.360625 3.7525 17.72125 3.625 17.0625 C3.41875 16.381875 3.2125 15.70125 3 15 C2.34 14.67 1.68 14.34 1 14 C1 13.01 1 12.02 1 11 C0.01 10.67 -0.98 10.34 -2 10 C-1.34 6.7 -0.68 3.4 0 0 Z " fill="#505DF1" transform="translate(170,72)"/>
<path d="M0 0 C1.32 0 2.64 0 4 0 C4.33 1.98 4.66 3.96 5 6 C5.99 6 6.98 6 8 6 C7.67 10.29 7.34 14.58 7 19 C6.34 19 5.68 19 5 19 C3.18495261 13.32654998 1.73859079 7.9087263 1 2 C0.67 1.34 0.34 0.68 0 0 Z " fill="#6D75EA" transform="translate(136,90)"/>
<path d="M0 0 C4.75 -0.125 4.75 -0.125 7 1 C9.09821215 0.60061233 9.09821215 0.60061233 11 0 C10.34 1.98 9.68 3.96 9 6 C9.66 6.66 10.32 7.32 11 8 C11 8.99 11 9.98 11 11 C7.34683329 9.75023244 6.21934164 9.32901247 4 6 C4 4.68 4 3.36 4 2 C3.01 2.33 2.02 2.66 1 3 C0.67 2.01 0.34 1.02 0 0 Z " fill="#8483F1" transform="translate(117,72)"/>
<path d="M0 0 C3.65316671 1.24976756 4.78065836 1.67098753 7 5 C5.35 5.33 3.7 5.66 2 6 C2 8.31 2 10.62 2 13 C-0.0625 11.3125 -0.0625 11.3125 -2 9 C-1.8125 6.5 -1.8125 6.5 -1 4 C-0.814375 3.236875 -0.62875 2.47375 -0.4375 1.6875 C-0.293125 1.130625 -0.14875 0.57375 0 0 Z " fill="#6B70DE" transform="translate(73,139)"/>
<path d="M0 0 C1.65 0.33 3.3 0.66 5 1 C2.45335415 5.81033104 0.00972202 9.32442148 -4 13 C-3.40546697 3.40546697 -3.40546697 3.40546697 0 0 Z " fill="#A8B3FA" transform="translate(132,128)"/>
<path d="M0 0 C0.598125 0.185625 1.19625 0.37125 1.8125 0.5625 C4.16408762 1.22093687 4.16408762 1.22093687 7 0 C5.83099972 3.11733407 4.47306241 6.05172018 2.9375 9 C1.41590733 11.98662055 0.41996883 14.64024934 0 18 C-0.66 18 -1.32 18 -2 18 C-1.67 14.37 -1.34 10.74 -1 7 C-0.01 7 0.98 7 2 7 C1.42415568 4.61435923 0.77772405 2.33317216 0 0 Z " fill="#8680E8" transform="translate(65,88)"/>
<path d="M0 0 C0.33 0 0.66 0 1 0 C1.02578125 0.89460938 1.0515625 1.78921875 1.078125 2.7109375 C1.41094622 9.80608072 2.15251881 15.64456 5.16015625 22.109375 C6 24 6 24 6 26 C4.68 26.33 3.36 26.66 2 27 C1.90912109 26.04287109 1.90912109 26.04287109 1.81640625 25.06640625 C1.73261719 24.24011719 1.64882812 23.41382813 1.5625 22.5625 C1.48128906 21.73878906 1.40007812 20.91507813 1.31640625 20.06640625 C1.21069185 18.01337975 1.21069185 18.01337975 0 17 C-0.07325168 14.13732433 -0.09238205 11.299281 -0.0625 8.4375 C-0.05798828 7.63119141 -0.05347656 6.82488281 -0.04882812 5.99414062 C-0.03700518 3.99606244 -0.01906914 1.99802217 0 0 Z " fill="#6F6FDB" transform="translate(63,106)"/>
<path d="M0 0 C1.32 0 2.64 0 4 0 C7.340185 7.59132954 9.33488071 13.62798216 9 22 C8.67 22 8.34 22 8 22 C7.87882812 21.19175781 7.75765625 20.38351563 7.6328125 19.55078125 C7.46523437 18.48214844 7.29765625 17.41351563 7.125 16.3125 C6.88136719 14.72888672 6.88136719 14.72888672 6.6328125 13.11328125 C6.03563123 10.17529685 5.30833469 7.69363023 4 5 C1.98264795 3.65589738 1.98264795 3.65589738 0 3 C0 2.01 0 1.02 0 0 Z " fill="#848AE7" transform="translate(67,144)"/>
<path d="M0 0 C1.36728108 4.10184325 1.02167617 7.89451528 0.9375 12.1875 C0.86344089 15.08211111 0.86344089 15.08211111 2 18 C1.01 18 0.02 18 -1 18 C-2.01702117 14.9489365 -2.16582083 12.75800939 -2.1875 9.5625 C-2.20167969 8.61503906 -2.21585937 7.66757813 -2.23046875 6.69140625 C-1.99614518 3.95498356 -1.39701383 2.33571877 0 0 Z " fill="#3F3F3F" transform="translate(397,114)"/>
<path d="M0 0 C0.66 0.33 1.32 0.66 2 1 C0.35 2.65 -1.3 4.3 -3 6 C-2.34 6.33 -1.68 6.66 -1 7 C-5.5 10 -5.5 10 -10 13 C-9.40527314 9.70724395 -8.33371431 7.86941865 -6.125 5.375 C-5.61195312 4.78460938 -5.09890625 4.19421875 -4.5703125 3.5859375 C-3 2 -3 2 0 0 Z " fill="#E9E9FC" transform="translate(80,81)"/>
<path d="M0 0 C4.49652778 -0.36458333 4.49652778 -0.36458333 6.8125 1.3125 C8 3 8 3 8 6 C4.7 5.67 1.4 5.34 -2 5 C-2 4.34 -2 3.68 -2 3 C-1.34 3 -0.68 3 0 3 C0 2.01 0 1.02 0 0 Z " fill="#515FF2" transform="translate(26,209)"/>
<path d="M0 0 C1.25425781 0.00902344 2.50851563 0.01804688 3.80078125 0.02734375 C4.75339844 0.03894531 5.70601562 0.05054688 6.6875 0.0625 C6.6875 0.3925 6.6875 0.7225 6.6875 1.0625 C3.98111246 1.59594164 1.27322796 2.11450929 -1.4375 2.625 C-2.19804688 2.77646484 -2.95859375 2.92792969 -3.7421875 3.08398438 C-8.23185602 3.91612121 -11.79145227 4.15304027 -16.3125 3.0625 C-10.97495377 0.09719654 -6.03710325 -0.05642153 0 0 Z " fill="#8A77DB" transform="translate(41.3125,38.9375)"/>
<path d="M0 0 C5.28 0 10.56 0 16 0 C16 0.66 16 1.32 16 2 C14.35 2.66 12.7 3.32 11 4 C11 3.34 11 2.68 11 2 C7.37 2 3.74 2 0 2 C0 1.34 0 0.68 0 0 Z " fill="#2E2E2E" transform="translate(823,105)"/>
<path d="M0 0 C0.66 0.66 1.32 1.32 2 2 C1.34 2 0.68 2 0 2 C0 5.96 0 9.92 0 14 C-0.99 14 -1.98 14 -3 14 C-3.05447047 12.58376784 -3.09300508 11.16691809 -3.125 9.75 C-3.14820313 8.96109375 -3.17140625 8.1721875 -3.1953125 7.359375 C-2.95156576 4.41491443 -2.11479623 2.11479623 0 0 Z " fill="#375AF2" transform="translate(171,183)"/>
<path d="M0 0 C0.33 0 0.66 0 1 0 C2.76560568 7.02431613 3.70311937 11.59075494 0 18 C-1.03974406 14.5836981 -1.13374875 11.43573988 -1.125 7.875 C-1.12886719 6.29332031 -1.12886719 6.29332031 -1.1328125 4.6796875 C-1 2 -1 2 0 0 Z " fill="#666FDF" transform="translate(76,152)"/>
<path d="M0 0 C0.66 0.33 1.32 0.66 2 1 C2 13 2 13 0.5 14.6875 C0.005 15.120625 -0.49 15.55375 -1 16 C-1.33 15.01 -1.66 14.02 -2 13 C-1.67 12.34 -1.34 11.68 -1 11 C-0.7724985 9.12943209 -0.59037189 7.25314042 -0.4375 5.375 C-0.35371094 4.37210937 -0.26992187 3.36921875 -0.18359375 2.3359375 C-0.12300781 1.56507812 -0.06242188 0.79421875 0 0 Z " fill="#5F6ADE" transform="translate(141,109)"/>
<path d="M0 0 C3.01103265 4.51654898 3.12682381 8.47362381 3.0625 13.8125 C3.05347656 14.78832031 3.04445312 15.76414062 3.03515625 16.76953125 C3.02355469 17.50558594 3.01195312 18.24164063 3 19 C2.67 19 2.34 19 2 19 C2 16.36 2 13.72 2 11 C1.01 11 0.02 11 -1 11 C-0.67 7.37 -0.34 3.74 0 0 Z " fill="#5965E3" transform="translate(171,61)"/>
<path d="M0 0 C0.66 0.33 1.32 0.66 2 1 C0.52307692 6.66153846 0.52307692 6.66153846 -2.125 8.375 C-2.74375 8.58125 -3.3625 8.7875 -4 9 C-3.67 7.68 -3.34 6.36 -3 5 C-3.66 4.67 -4.32 4.34 -5 4 C-3.36587557 2.29159719 -2.13093906 1.06546953 0 0 Z " fill="#5463E0" transform="translate(78,168)"/>
<path d="M0 0 C1.32 0.33 2.64 0.66 4 1 C4.33 2.32 4.66 3.64 5 5 C2.03 5.66 -0.94 6.32 -4 7 C-3.67 6.01 -3.34 5.02 -3 4 C-2.34 3.67 -1.68 3.34 -1 3 C-0.67 2.01 -0.34 1.02 0 0 Z " fill="#355AEF" transform="translate(146,208)"/>
<path d="M0 0 C0 0.66 0 1.32 0 2 C-7.28571429 5.42857143 -7.28571429 5.42857143 -12 5 C-12.33 4.34 -12.66 3.68 -13 3 C-11.39743892 2.49487756 -9.79288208 1.99608373 -8.1875 1.5 C-7.29417969 1.2215625 -6.40085938 0.943125 -5.48046875 0.65625 C-3 0 -3 0 0 0 Z " fill="#313131" transform="translate(254,139)"/>
<path d="M0 0 C-1.12451727 2.9719385 -2.22293791 5.33440687 -4 8 C-5.65 7.67 -7.3 7.34 -9 7 C-8.07347299 5.82460004 -7.13336613 4.65989423 -6.1875 3.5 C-5.66542969 2.8503125 -5.14335938 2.200625 -4.60546875 1.53125 C-3 0 -3 0 0 0 Z " fill="#5964CF" transform="translate(75,173)"/>
<path d="M0 0 C1 3 1 3 -0.4375 6.1875 C-1.2109375 7.5796875 -1.2109375 7.5796875 -2 9 C-3.32 8.34 -4.64 7.68 -6 7 C-4.77065985 3.31197956 -3.06140622 2.27643027 0 0 Z " fill="#313131" transform="translate(336,109)"/>
<path d="M0 0 C4.75 0.75 4.75 0.75 7 3 C7.70710678 4.64991582 8.37943989 6.31562256 9 8 C5.18284914 6.44486447 2.77292558 4.00400272 0 1 C0 0.67 0 0.34 0 0 Z " fill="#5F65DD" transform="translate(7,202)"/>
<path d="M0 0 C1.65 0.33 3.3 0.66 5 1 C5 1.66 5 2.32 5 3 C5.66 3.33 6.32 3.66 7 4 C6.34 4 5.68 4 5 4 C4.67 4.66 4.34 5.32 4 6 C2.35 5.67 0.7 5.34 -1 5 C-0.67 3.35 -0.34 1.7 0 0 Z " fill="#5B63D4" transform="translate(83,146)"/>
<path d="M0 0 C2.66215851 0.38249404 5.32820516 0.6882906 8 1 C8 1.33 8 1.66 8 2 C1.565 2.495 1.565 2.495 -5 3 C-5.33 2.01 -5.66 1.02 -6 0 C-3.40292666 -1.29853667 -2.79151288 -0.73460865 0 0 Z " fill="#2F2F2F" transform="translate(860,105)"/>
<path d="M0 0 C2.475 0.99 2.475 0.99 5 2 C4.67 3.32 4.34 4.64 4 6 C3.34 5.67 2.68 5.34 2 5 C1.01 5.99 0.02 6.98 -1 8 C-0.67 5.36 -0.34 2.72 0 0 Z " fill="#886DF9" transform="translate(3,63)"/>
<path d="M0 0 C0.99 0 1.98 0 3 0 C3.20140476 3.62528568 2.85776765 5.86501708 1 9 C-0.61949011 6.42786866 -1.04408751 5.32330841 -0.625 2.25 C-0.41875 1.5075 -0.2125 0.765 0 0 Z " fill="#5262FB" transform="translate(170,72)"/>
<path d="M0 0 C1.98 0 3.96 0 6 0 C6.625 1.875 6.625 1.875 7 4 C6.34 4.66 5.68 5.32 5 6 C5 5.34 5 4.68 5 4 C4.34 4 3.68 4 3 4 C3 3.34 3 2.68 3 2 C2.01 1.67 1.02 1.34 0 1 C0 0.67 0 0.34 0 0 Z " fill="#896DF8" transform="translate(25,42)"/>
<path d="M0 0 C0.33 0 0.66 0 1 0 C0.88490339 1.41750563 0.75746342 2.83401169 0.625 4.25 C0.55539063 5.03890625 0.48578125 5.8278125 0.4140625 6.640625 C0 9 0 9 -2 13 C-2 9.7 -2 6.4 -2 3 C-1.34 3 -0.68 3 0 3 C0 2.01 0 1.02 0 0 Z " fill="#3B5AD2" transform="translate(173,182)"/>
<path d="M0 0 C1.11375 0.3403125 1.11375 0.3403125 2.25 0.6875 C-0.68828597 3.19048434 -2.92902761 4.15680939 -6.75 4.6875 C-6.75 2.6875 -6.75 2.6875 -5.0625 1 C-2.75 -0.3125 -2.75 -0.3125 0 0 Z " fill="#98A5FE" transform="translate(117.75,145.3125)"/>
<path d="M0 0 C0.33 0.66 0.66 1.32 1 2 C1.99 2.33 2.98 2.66 4 3 C0.7 3.66 -2.6 4.32 -6 5 C-4 1 -4 1 -1.875 0.25 C-1.25625 0.1675 -0.6375 0.085 0 0 Z " fill="#2F2F2F" transform="translate(938,104)"/>
<path d="M0 0 C0.99 0 1.98 0 3 0 C3.66 3.3 4.32 6.6 5 10 C1.65094547 6.65094547 1.10529715 4.50621146 0 0 Z " fill="#6266D8" transform="translate(2,191)"/>
<path d="M0 0 C2.40072955 2.88087546 4.47291037 5.56404834 6 9 C4.125 8.75 4.125 8.75 2 8 C-0.02755186 5.06004981 0 3.72295997 0 0 Z " fill="#6C70D5" transform="translate(37,168)"/>
<path d="M0 0 C0.66 0 1.32 0 2 0 C1.34 1.98 0.68 3.96 0 6 C-0.66 6 -1.32 6 -2 6 C-1.34 4.02 -0.68 2.04 0 0 Z M-3 6 C-1.515 6.99 -1.515 6.99 0 8 C-0.99 8.66 -1.98 9.32 -3 10 C-3.33 9.34 -3.66 8.68 -4 8 C-3.67 7.34 -3.34 6.68 -3 6 Z " fill="#404040" transform="translate(732,149)"/>
<path d="M0 0 C0.99 0 1.98 0 3 0 C4.32 2.64 5.64 5.28 7 8 C6.01 8.495 6.01 8.495 5 9 C3.35 6.03 1.7 3.06 0 0 Z " fill="#3E3E3E" transform="translate(260,95)"/>
<path d="M0 0 C0.66 0 1.32 0 2 0 C3.6875 2.3125 3.6875 2.3125 5 5 C4.67 5.99 4.34 6.98 4 8 C3.01 7.67 2.02 7.34 1 7 C1.33 6.34 1.66 5.68 2 5 C1.34 4.34 0.68 3.68 0 3 C0 2.01 0 1.02 0 0 Z " fill="#DFE1FE" transform="translate(130,87)"/>
<path d="M0 0 C1.32 0.33 2.64 0.66 4 1 C4 2.98 4 4.96 4 7 C2 5.1875 2 5.1875 0 3 C0 2.01 0 1.02 0 0 Z " fill="#7076EC" transform="translate(71,145)"/>
<path d="M0 0 C0.66 0.33 1.32 0.66 2 1 C0.68 3.31 -0.64 5.62 -2 8 C-2.66 7.34 -3.32 6.68 -4 6 C-3.8125 4 -3.8125 4 -3 2 C-2.01 1.34 -1.02 0.68 0 0 Z " fill="#3E3E3E" transform="translate(469,121)"/>
<path d="M0 0 C1.65 0 3.3 0 5 0 C5 1.32 5 2.64 5 4 C4.01 4.33 3.02 4.66 2 5 C1.01 4.34 0.02 3.68 -1 3 C-0.67 2.01 -0.34 1.02 0 0 Z " fill="#9AA3FA" transform="translate(89,145)"/>
<path d="M0 0 C0.99 0.33 1.98 0.66 3 1 C1.35 2.98 -0.3 4.96 -2 7 C-2.33 6.01 -2.66 5.02 -3 4 C-1.5625 1.8125 -1.5625 1.8125 0 0 Z " fill="#E0DEFE" transform="translate(73,87)"/>
<path d="M0 0 C0.33 0 0.66 0 1 0 C1 2.97 1 5.94 1 9 C0.01 8.34 -0.98 7.68 -2 7 C-2.3125 4.5 -2.3125 4.5 -2 2 C-1.34 1.34 -0.68 0.68 0 0 Z " fill="#7172EB" transform="translate(36,155)"/>
</svg>
