<?xml version="1.0" encoding="UTF-8"?>
<svg version="1.1" xmlns="http://www.w3.org/2000/svg" width="149" height="40">
<path d="M0 0 C49.17 0 98.34 0 149 0 C149 13.2 149 26.4 149 40 C99.83 40 50.66 40 0 40 C0 26.8 0 13.6 0 0 Z " fill="#FBFBFC" transform="translate(0,0)"/>
<path d="M0 0 C0.87914062 0.00064453 1.75828125 0.00128906 2.6640625 0.00195312 C4.03691406 0.02612305 4.03691406 0.02612305 5.4375 0.05078125 C6.35273438 0.04755859 7.26796875 0.04433594 8.2109375 0.04101562 C15.03667092 0.09606186 15.03667092 0.09606186 18.4375 2.36328125 C18.82568359 4.47045898 18.82568359 4.47045898 18.8359375 7.046875 C18.84173828 8.4380957 18.84173828 8.4380957 18.84765625 9.85742188 C18.83605469 10.82873047 18.82445313 11.80003906 18.8125 12.80078125 C18.82410156 13.76822266 18.83570312 14.73566406 18.84765625 15.73242188 C18.84378906 16.66119141 18.83992188 17.58996094 18.8359375 18.546875 C18.83086182 19.82389282 18.83086182 19.82389282 18.82568359 21.12670898 C18.4375 23.36328125 18.4375 23.36328125 17.18188477 25.13720703 C13.8612981 27.47114492 9.92299706 26.83300901 6 26.80078125 C4.71125977 26.83075195 4.71125977 26.83075195 3.39648438 26.86132812 C-0.31847527 26.85844608 -2.85315042 26.75784348 -6.1328125 24.93359375 C-8.33848605 20.9682025 -8.10371513 17.26053199 -8 12.80078125 C-8.00708984 11.93775391 -8.01417969 11.07472656 -8.02148438 10.18554688 C-7.95819357 3.91975693 -7.95819357 3.91975693 -6.32055664 1.61669922 C-4.07365628 0.01475693 -2.74442722 -0.01018698 0 0 Z " fill="#6368F8" transform="translate(7.5625,6.63671875)"/>
<path d="M0 0 C0.99 0.66 1.98 1.32 3 2 C3.65158371 8.84162896 3.65158371 8.84162896 1.875 12 C-0.78934884 13.42098605 -3.03491085 13.19767261 -6 13 C-6.33 14.32 -6.66 15.64 -7 17 C-8.875 17.625 -8.875 17.625 -11 18 C-13 16 -13 16 -13.125 13.375 C-13.08375 12.59125 -13.0425 11.8075 -13 11 C-12.01 10.67 -11.02 10.34 -10 10 C-9.896875 8.906875 -9.79375 7.81375 -9.6875 6.6875 C-9 3 -9 3 -7.8125 1.0625 C-5.11939495 -0.51621675 -3.05969475 -0.3187182 0 0 Z " fill="#7676EB" transform="translate(18,10)"/>
<path d="M0 0 C6.0546875 -0.1953125 6.0546875 -0.1953125 8 0 C10 2 10 2 10.3125 4.9375 C10 8 10 8 8.75 9.875 C7 11 7 11 3 11 C3 12.32 3 13.64 3 15 C2.01 15 1.02 15 0 15 C0 10.05 0 5.1 0 0 Z " fill="#6A6969" transform="translate(126,16)"/>
<path d="M0 0 C1.27875 -0.061875 2.5575 -0.12375 3.875 -0.1875 C4.95394531 -0.23970703 4.95394531 -0.23970703 6.0546875 -0.29296875 C6.69664062 -0.19628906 7.33859375 -0.09960938 8 0 C10.15502531 3.23253796 10.46856135 4.25150923 10 8 C8.75 9.8125 8.75 9.8125 7 11 C5.68 11 4.36 11 3 11 C2.67 12.32 2.34 13.64 2 15 C1.34 15 0.68 15 0 15 C0 10.05 0 5.1 0 0 Z " fill="#515050" transform="translate(138,16)"/>
<path d="M0 0 C7.75 -0.125 7.75 -0.125 10 1 C10.125 3.875 10.125 3.875 10 7 C8 9 8 9 4.875 9.125 C3.92625 9.08375 2.9775 9.0425 2 9 C2 10.98 2 12.96 2 15 C1.34 15 0.68 15 0 15 C0 10.05 0 5.1 0 0 Z " fill="#515050" transform="translate(30,12)"/>
<path d="M0 0 C0.99 0 1.98 0 3 0 C3.83739781 2.1234016 4.66980283 4.2487728 5.5 6.375 C5.9640625 7.55835938 6.428125 8.74171875 6.90625 9.9609375 C8 13 8 13 8 15 C7.34 15 6.68 15 6 15 C5.67 13.35 5.34 11.7 5 10 C2.69 10 0.38 10 -2 10 C-2.33 11.32 -2.66 12.64 -3 14 C-3.66 14 -4.32 14 -5 14 C-4.54636829 12.41531323 -4.08688548 10.83230076 -3.625 9.25 C-3.36976562 8.36828125 -3.11453125 7.4865625 -2.8515625 6.578125 C-2.0790066 4.23919428 -1.16374324 2.16557438 0 0 Z " fill="#4C4B4B" transform="translate(117,12)"/>
<path d="M0 0 C3.0625 0.1875 3.0625 0.1875 5.0625 2.1875 C5.0625 3.5075 5.0625 4.8275 5.0625 6.1875 C2.4225 6.1875 -0.2175 6.1875 -2.9375 6.1875 C-2.6075 6.8475 -2.2775 7.5075 -1.9375 8.1875 C1.5275 7.6925 1.5275 7.6925 5.0625 7.1875 C4.7325 8.1775 4.4025 9.1675 4.0625 10.1875 C-1.3239279 11.50418238 -1.3239279 11.50418238 -3.875 10.1875 C-5.54180224 7.04998991 -4.68520812 4.55218653 -3.9375 1.1875 C-2.9375 0.1875 -2.9375 0.1875 0 0 Z " fill="#888787" transform="translate(53.9375,15.8125)"/>
<path d="M0 0 C0.99 0.103125 1.98 0.20625 3 0.3125 C5 3.3125 5 3.3125 5 6.3125 C2.36 6.3125 -0.28 6.3125 -3 6.3125 C-2.67 6.9725 -2.34 7.6325 -2 8.3125 C-0.02 7.9825 1.96 7.6525 4 7.3125 C3.34 8.6325 2.68 9.9525 2 11.3125 C-2.75 10.5625 -2.75 10.5625 -5 8.3125 C-5.25 5.3125 -5.25 5.3125 -5 2.3125 C-3 0.3125 -3 0.3125 0 0 Z " fill="#767575" transform="translate(75,15.6875)"/>
<path d="M0 0 C3.625 0.375 3.625 0.375 7 1 C7.33 2.98 7.66 4.96 8 7 C4.37 7 0.74 7 -3 7 C-2 2 -2 2 0 0 Z " fill="#D1D3FD" transform="translate(13,12)"/>
<path d="M0 0 C0.8125 1.6875 0.8125 1.6875 1 4 C-1.96177004 7.65865711 -4.60771733 9.45676555 -9 11 C-9.66 11.66 -10.32 12.32 -11 13 C-13.625 13.125 -13.625 13.125 -16 13 C-16.33 11.68 -16.66 10.36 -17 9 C-14.525 9.495 -14.525 9.495 -12 10 C-11.7525 9.0409375 -11.7525 9.0409375 -11.5 8.0625 C-10 6 -10 6 -8.0859375 5.51171875 C-6.06424845 5.2724022 -4.03158061 5.13106972 -2 5 C-1.34 3.35 -0.68 1.7 0 0 Z " fill="#4758D7" transform="translate(22,17)"/>
<path d="M0 0 C1.2065625 0.0309375 1.2065625 0.0309375 2.4375 0.0625 C2.7675 1.0525 3.0975 2.0425 3.4375 3.0625 C2.7775 3.0625 2.1175 3.0625 1.4375 3.0625 C1.4375 2.4025 1.4375 1.7425 1.4375 1.0625 C0.4475 1.7225 -0.5425 2.3825 -1.5625 3.0625 C0.4175 4.0525 2.3975 5.0425 4.4375 6.0625 C3.5625 9.9375 3.5625 9.9375 2.4375 11.0625 C0.77132885 11.10313832 -0.89638095 11.105221 -2.5625 11.0625 C-3.2225 9.7425 -3.8825 8.4225 -4.5625 7.0625 C-1.5925 7.5575 -1.5925 7.5575 1.4375 8.0625 C0.798125 7.835625 0.15875 7.60875 -0.5 7.375 C-2.5625 6.0625 -2.5625 6.0625 -3.375 3.5 C-3.4678125 2.2934375 -3.4678125 2.2934375 -3.5625 1.0625 C-2.5625 0.0625 -2.5625 0.0625 0 0 Z " fill="#515050" transform="translate(64.5625,15.9375)"/>
<path d="M0 0 C1.65 0 3.3 0 5 0 C5.33 0.99 5.66 1.98 6 3 C5.34 3 4.68 3 4 3 C4 2.34 4 1.68 4 1 C3.01 1 2.02 1 1 1 C1 1.99 1 2.98 1 4 C2.65 4.33 4.3 4.66 6 5 C6.625 6.875 6.625 6.875 7 9 C5 11 5 11 2.375 11.125 C1.59125 11.08375 0.8075 11.0425 0 11 C-0.33 9.68 -0.66 8.36 -1 7 C0.98 7.66 2.96 8.32 5 9 C3.60804085 6.2160817 1.84424221 6.02101003 -1 5 C-0.67 3.35 -0.34 1.7 0 0 Z " fill="#5D5D5D" transform="translate(94,16)"/>
<path d="M0 0 C3.69230769 0.69230769 3.69230769 0.69230769 5 2 C5.04063832 3.66617115 5.042721 5.33388095 5 7 C3.34385343 7.38218767 1.67542976 7.71395102 0 8 C-1 7 -1 7 -1.125 4 C-1 1 -1 1 0 0 Z " fill="#EBEBEB" transform="translate(141,17)"/>
<path d="M0 0 C2.33294775 -0.04241723 4.66702567 -0.04092937 7 0 C8 1 8 1 8.09765625 3.06640625 C8.08605469 3.89011719 8.07445313 4.71382812 8.0625 5.5625 C8.05347656 6.38878906 8.04445313 7.21507812 8.03515625 8.06640625 C8.02355469 8.70449219 8.01195313 9.34257812 8 10 C7.67 10 7.34 10 7 10 C7 7.36 7 4.72 7 2 C5.35 2 3.7 2 2 2 C2 4.97 2 7.94 2 11 C1.34 11 0.68 11 0 11 C0 7.37 0 3.74 0 0 Z " fill="#5D5C5C" transform="translate(82,16)"/>
<path d="M0 0 C0.99 0 1.98 0 3 0 C3.33 2.31 3.66 4.62 4 7 C2.35 7.33 0.7 7.66 -1 8 C-1.625 5.125 -1.625 5.125 -2 2 C-1.34 1.34 -0.68 0.68 0 0 Z " fill="#EFEFEF" transform="translate(130,17)"/>
<path d="M0 0 C2 3 2 3 2 5 C2.99 5.33 3.98 5.66 5 6 C6.1875 9.5625 6.1875 9.5625 7 13 C6.34 13 5.68 13 5 13 C4.67 11.35 4.34 9.7 4 8 C1.03 7.505 1.03 7.505 -2 7 C-1.125 2.25 -1.125 2.25 0 0 Z " fill="#989898" transform="translate(118,14)"/>
<path d="M0 0 C3.63 0 7.26 0 11 0 C10.67 0.99 10.34 1.98 10 3 C7.69 3.33 5.38 3.66 3 4 C2.01 2.68 1.02 1.36 0 0 Z " fill="#AFB6FB" transform="translate(10,19)"/>
<path d="M0 0 C2.375 -0.1875 2.375 -0.1875 5 0 C7.15502531 3.23253796 7.46856135 4.25150923 7 8 C5.75 9.875 5.75 9.875 4 11 C1.8125 10.6875 1.8125 10.6875 0 10 C1.32 9.34 2.64 8.68 4 8 C4.33425735 5.62625139 4.33425735 5.62625139 4 3 C2.0995533 1.15684329 2.0995533 1.15684329 0 0 Z " fill="#5F5E5E" transform="translate(141,16)"/>
<path d="M0 0 C0.33 0 0.66 0 1 0 C1.33 1.98 1.66 3.96 2 6 C5.465 5.505 5.465 5.505 9 5 C8.67 5.99 8.34 6.98 8 8 C2.55263158 9.33157895 2.55263158 9.33157895 0.125 7.875 C-1.33772308 5.43712819 -1.29431219 3.7959658 -1 1 C-0.67 0.67 -0.34 0.34 0 0 Z " fill="#616060" transform="translate(50,18)"/>
<path d="M0 0 C1.98 0 3.96 0 6 0 C5.67 1.65 5.34 3.3 5 5 C3.35 5 1.7 5 0 5 C0 3.35 0 1.7 0 0 Z " fill="#FAFAFA" transform="translate(32,14)"/>
<path d="M0 0 C1.98 0 3.96 0 6 0 C6 0.66 6 1.32 6 2 C5.01 2.33 4.02 2.66 3 3 C2.67 5.31 2.34 7.62 2 10 C1.34 10 0.68 10 0 10 C0 6.7 0 3.4 0 0 Z " fill="#656464" transform="translate(42,16)"/>
<path d="M0 0 C1.98 0.495 1.98 0.495 4 1 C3.67 2.65 3.34 4.3 3 6 C1.68 5.67 0.36 5.34 -1 5 C-0.67 3.35 -0.34 1.7 0 0 Z " fill="#D3D5FC" transform="translate(7,22)"/>
<path d="M0 0 C1.65 0 3.3 0 5 0 C5.33 0.99 5.66 1.98 6 3 C3.29120665 4.35439668 0.99066732 4.06501451 -2 4 C-1.34 2.68 -0.68 1.36 0 0 Z " fill="#EAE9FE" transform="translate(13,12)"/>
<path d="M0 0 C3.125 0.1875 3.125 0.1875 6.125 2.1875 C5.795 3.1775 5.465 4.1675 5.125 5.1875 C5.125 4.5275 5.125 3.8675 5.125 3.1875 C-0.19670494 2.89187633 -0.19670494 2.89187633 -4.875 5.1875 C-3.75898577 0.24515125 -3.75898577 0.24515125 0 0 Z " fill="#8783F7" transform="translate(14.875,9.8125)"/>
<path d="M0 0 C0.33 0.99 0.66 1.98 1 3 C-1 5 -1 5 -3.625 5.125 C-4.40875 5.08375 -5.1925 5.0425 -6 5 C-6.66 3.68 -7.32 2.36 -8 1 C-5.36 1.33 -2.72 1.66 0 2 C0 1.34 0 0.68 0 0 Z " fill="#767575" transform="translate(68,22)"/>
<path d="M0 0 C0.99 0 1.98 0 3 0 C3.66 2.31 4.32 4.62 5 7 C3 7 3 7 0.875 5 C0.25625 4.34 -0.3625 3.68 -1 3 C-0.67 2.01 -0.34 1.02 0 0 Z " fill="#585757" transform="translate(117,12)"/>
<path d="M0 0 C2.31 0 4.62 0 7 0 C6.01 1.485 6.01 1.485 5 3 C3.35 2.67 1.7 2.34 0 2 C0 1.34 0 0.68 0 0 Z " fill="#F1F0F0" transform="translate(51,22)"/>
</svg>
